<?xml version="1.0" encoding="UTF-8" standalone="no"?>
<svg width="88px" height="40px" viewBox="0 0 88 40" version="1.1" xmlns="http://www.w3.org/2000/svg" xmlns:xlink="http://www.w3.org/1999/xlink" xmlns:sketch="http://www.bohemiancoding.com/sketch/ns">
    <!-- Generator: Sketch 3.4.2 (15857) - http://www.bohemiancoding.com/sketch -->
    <title>Share</title>
    <desc>Enso Magazine</desc>
    <defs></defs>
    <g id="Page-1" stroke="none" stroke-width="1" fill="none" fill-rule="evenodd" sketch:type="MSPage">
        <g id="Rectangle-3-+-share-+-Ei-sc-facebook" sketch:type="MSLayerGroup">
            <rect id="Rectangle-3" stroke="#0C6DDA" sketch:type="MSShapeGroup" x="0" y="0" width="88" height="40"></rect>
            <path d="M45.7734615,26.135 C47.6784615,26.135 48.6534615,25.175 48.6534615,23.75 C48.6534615,22.085 47.5134615,21.725 45.8934615,21.425 C44.4534615,21.17 44.0634615,20.885 44.0634615,20.18 C44.0634615,19.505 44.6484615,19.055 45.5484615,19.055 C46.5384615,19.055 47.0184615,19.43 47.1984615,20.285 L48.3984615,20.285 C48.1884615,18.59 46.9734615,18.02 45.5634615,18.02 C44.3334615,18.02 42.9084615,18.77 42.9084615,20.225 C42.9084615,21.59 43.5984615,22.16 45.6384615,22.535 C46.8534615,22.76 47.4684615,23.03 47.4684615,23.855 C47.4684615,24.695 46.9434615,25.1 45.7584615,25.1 C44.4984615,25.1 44.0034615,24.515 43.9134615,23.585 L42.6984615,23.585 C42.7734615,25.19 43.8984615,26.135 45.7734615,26.135 L45.7734615,26.135 Z M50.4857692,26 L51.7307692,26 L51.7307692,21.245 C51.7307692,19.835 52.7657692,19.1 53.9207692,19.1 C55.1807692,19.1 55.7657692,19.715 55.7657692,21.095 L55.7657692,26 L57.0107692,26 L57.0107692,21.185 C57.0107692,18.905 55.8707692,18.02 54.2507692,18.02 C52.9607692,18.02 52.0907692,18.665 51.7307692,19.4 L51.7307692,14.405 L50.4857692,14.405 L50.4857692,26 Z M61.3630769,26.135 C62.5180769,26.135 63.2230769,25.745 63.8080769,25.01 L63.8080769,26 L65.0530769,26 L65.0530769,20.825 C65.0530769,18.635 63.6880769,18.02 62.1880769,18.02 C60.6730769,18.02 59.2480769,18.68 59.0830769,20.465 L60.3280769,20.465 C60.4480769,19.505 61.0480769,19.055 62.1280769,19.055 C63.3280769,19.055 63.8080769,19.58 63.8080769,20.825 L63.8080769,21.395 L62.6830769,21.395 C60.6730769,21.395 58.7530769,22.01 58.7530769,23.825 C58.7530769,25.43 59.9080769,26.135 61.3630769,26.135 L61.3630769,26.135 Z M61.4830769,25.145 C60.3880769,25.145 59.9980769,24.635 59.9980769,23.825 C59.9980769,22.67 61.1530769,22.28 62.7280769,22.28 L63.8080769,22.28 L63.8080769,23.255 C63.8080769,24.47 62.8030769,25.145 61.4830769,25.145 L61.4830769,25.145 Z M67.4403846,26 L68.6853846,26 L68.6853846,21.695 C68.6853846,19.76 69.6903846,19.265 71.2653846,19.19 L71.2653846,18.02 C69.8553846,18.065 69.1803846,18.68 68.6853846,19.565 L68.6853846,18.155 L67.4403846,18.155 L67.4403846,26 Z M76.0076923,26.135 C77.7776923,26.135 79.0826923,25.31 79.3526923,23.735 L78.1076923,23.735 C77.9426923,24.65 77.2376923,25.1 76.0226923,25.1 C74.4176923,25.1 73.5626923,24.11 73.5026923,22.325 L79.4126923,22.325 L79.4126923,21.92 C79.4126923,19.115 77.7026923,18.02 75.8876923,18.02 C73.7276923,18.02 72.2126923,19.67 72.2126923,22.04 L72.2126923,22.16 C72.2126923,24.575 73.7876923,26.135 76.0076923,26.135 L76.0076923,26.135 Z M73.5476923,21.32 C73.7576923,19.925 74.6126923,19.055 75.8876923,19.055 C77.1776923,19.055 78.0176923,19.7 78.1376923,21.32 L73.5476923,21.32 Z" id="share" fill="#0B6CDA" sketch:type="MSShapeGroup"></path>
            <g id="Ei-sc-facebook" transform="translate(13.000000, 12.000000)" fill="#0045E8" sketch:type="MSShapeGroup">
                <path d="M5.33333349,4.98583984 L5.33333333,3.73333333 C5.33333333,3.04 5.49333333,2.66666667 6.61333333,2.66666667 L8,2.66666667 L8,0 L5.86666667,0 C3.2,0 2.01098633,1.76000002 2.01098633,3.73333335 L2.01098633,4.98583984 L0,4.98583984 L0,8 L2.01098633,8 L2.01098633,16 L5.00073242,16 L5.00073242,8 L7.68,8 L8.13651514,4.98583984 L5.46984863,4.98583984 L5.33333349,4.98583984 Z" id="Shape"></path>
            </g>
        </g>
    </g>
</svg>