<?xml version="1.0" encoding="UTF-8" standalone="no"?>
<svg width="88px" height="40px" viewBox="0 0 88 40" version="1.1" xmlns="http://www.w3.org/2000/svg" xmlns:xlink="http://www.w3.org/1999/xlink" xmlns:sketch="http://www.bohemiancoding.com/sketch/ns">
    <!-- Generator: Sketch 3.4.2 (15857) - http://www.bohemiancoding.com/sketch -->
    <title>Pin</title>
    <desc>Enso Magazine</desc>
    <defs></defs>
    <g id="Page-1" stroke="none" stroke-width="1" fill="none" fill-rule="evenodd" sketch:type="MSPage">
        <g id="Rectangle-3-Copy-14-+-pin-copy-2-+-Shape-Copy-2" sketch:type="MSLayerGroup">
            <rect id="Rectangle-3-Copy-14" stroke="#D73E32" sketch:type="MSShapeGroup" x="0" y="0" width="88" height="40"></rect>
            <path d="M59.2330769,27.73 L60.4780769,27.73 L60.4780769,23.71 C60.9280769,24.49 61.8430769,25.135 63.1330769,25.135 C65.2930769,25.135 66.7030769,23.485 66.7030769,21.085 L66.7030769,20.965 C66.7030769,18.52 65.1880769,17.02 63.1330769,17.02 C61.9930769,17.02 60.9280769,17.71 60.4780769,18.475 L60.4780769,17.155 L59.2330769,17.155 L59.2330769,27.73 Z M63.0130769,24.1 C61.4830769,24.1 60.4330769,23.155 60.4330769,21.145 L60.4330769,21.025 C60.4330769,19.015 61.5430769,18.055 62.9980769,18.055 C64.3180769,18.055 65.4130769,19.045 65.4130769,21.025 L65.4130769,21.145 C65.4130769,23.05 64.5730769,24.1 63.0130769,24.1 L63.0130769,24.1 Z M68.6103846,25 L69.8553846,25 L69.8553846,17.155 L68.6103846,17.155 L68.6103846,25 Z M69.2103846,15.52 C69.6603846,15.52 70.0353846,15.145 70.0353846,14.695 C70.0353846,14.245 69.6603846,13.87 69.2103846,13.87 C68.7603846,13.87 68.3853846,14.245 68.3853846,14.695 C68.3853846,15.145 68.7603846,15.52 69.2103846,15.52 L69.2103846,15.52 Z M72.3476923,25 L73.5926923,25 L73.5926923,20.245 C73.5926923,18.835 74.6276923,18.1 75.7826923,18.1 C77.0426923,18.1 77.6276923,18.715 77.6276923,20.095 L77.6276923,25 L78.8726923,25 L78.8726923,20.185 C78.8726923,17.905 77.7326923,17.02 76.1126923,17.02 C74.8226923,17.02 73.9526923,17.665 73.5926923,18.4 L73.5926923,17.155 L72.3476923,17.155 L72.3476923,25 Z" id="pin-copy-2" fill="#D73E32" sketch:type="MSShapeGroup"></path>
            <path d="M16.6885649,12 C12.241995,12 10,15.1880007 10,17.8465044 C10,19.4562005 10.609431,20.8882542 11.9165425,21.4219091 C12.1308776,21.5095349 12.3228645,21.4249235 12.3850237,21.1876165 C12.4282649,21.023383 12.5305471,20.6090573 12.576179,20.4365081 C12.638858,20.2017998 12.6145348,20.1194751 12.4415699,19.9149109 C12.0646645,19.4703371 11.8238233,18.8947922 11.8238233,18.0795497 C11.8238233,15.7143795 13.5933872,13.5970148 16.4317162,13.5970148 C18.9450083,13.5970148 20.325817,15.1327019 20.325817,17.1836456 C20.325817,19.8821681 19.13159,22.1597125 17.3586999,22.1597125 C16.3796396,22.1597125 15.6467216,21.349979 15.8816379,20.3568861 C16.1629137,19.1712866 16.7077947,17.8917206 16.7077947,17.0359394 C16.7077947,16.2698629 16.2965873,15.6309115 15.4455876,15.6309115 C14.4446988,15.6309115 13.6406823,16.6663101 13.6406823,18.0533554 C13.6406823,18.9367861 13.9392131,19.5342634 13.9392131,19.5342634 C13.9392131,19.5342634 12.9149366,23.8740814 12.7354231,24.6341291 C12.3778515,26.1477798 12.6816834,28.0033064 12.7073579,28.1907197 C12.72243,28.3017332 12.8651468,28.3281353 12.9298008,28.2442515 C13.0221041,28.1237789 14.2141482,26.6521221 14.6194308,25.1816087 C14.7340824,24.765204 15.277716,22.6090678 15.277716,22.6090678 C15.6028567,23.2293091 16.5532281,23.7756453 17.5638878,23.7756453 C20.572479,23.7756453 22.6136519,21.032842 22.6136519,17.3614959 C22.6136519,14.5854301 20.2623064,12 16.6885649,12 L16.6885649,12 Z" id="Shape-Copy-2" fill="#CB2027" sketch:type="MSShapeGroup"></path>
        </g>
    </g>
</svg>