<?xml version="1.0" encoding="UTF-8" standalone="no"?>
<svg width="305px" height="66px" viewBox="0 0 305 66" version="1.1" xmlns="http://www.w3.org/2000/svg" xmlns:xlink="http://www.w3.org/1999/xlink" xmlns:sketch="http://www.bohemiancoding.com/sketch/ns">
    <!-- Generator: Sketch 3.4.1 (15681) - http://www.bohemiancoding.com/sketch -->
    <title>enso</title>
    <desc>Created with Sketch.</desc>
    <defs></defs>
    <g id="Index" stroke="none" stroke-width="1" fill="none" fill-rule="evenodd" sketch:type="MSPage">
        <g id="Main" sketch:type="MSArtboardGroup" transform="translate(-32.000000, -41.000000)" fill="#FFFFFF">
            <path d="M106.296207,77.9005629 C106.048553,68.9849906 104.810283,63.1651032 101.59078,57.2213884 C96.0185648,46.69606 84.5026528,41 69.1481034,41 C46.3639333,41 32,54.0018762 32,74.4333959 C32,83.4727955 34.9718483,91.3977486 40.5440638,97.0938086 C46.8592414,103.532833 57.0130563,107 69.8910654,107 C80.6640154,107 88.9604252,104.275797 96.0185648,98.4559099 C100.971645,94.369606 103.572013,90.7786116 105.553245,85.206379 L83.8835177,85.206379 C81.5308045,90.7786116 76.8253781,93.3789869 69.2719304,93.3789869 C58.7466344,93.3789869 51.9361488,87.435272 51.8123218,77.9005629 L106.296207,77.9005629 Z M51.4314599,65.7654784 C53.2888651,57.3452158 58.8610806,53.1350844 67.9004524,53.1350844 C76.9398243,53.1350844 82.3882128,57.3452158 84.3694449,65.7654784 L51.4314599,65.7654784 Z M109.873119,104.523452 L129.437787,104.523452 L129.437787,72.6998124 C129.437787,62.2983114 135.629137,55.9831144 145.782952,55.9831144 C149.99307,55.9831144 153.831708,57.3452158 156.555902,59.6979362 C159.651577,62.4221388 160.889847,66.0131332 160.889847,72.2045028 L160.889847,104.523452 L180.454515,104.523452 L180.454515,70.8424015 C180.454515,59.6979362 178.968591,54.4971857 174.263165,49.5440901 C169.433911,44.3433396 161.63281,41.3714822 153.212573,41.3714822 C144.297028,41.3714822 137.858023,43.9718574 129.437787,50.9061914 L129.437787,43.4765478 L109.873119,43.4765478 L109.873119,104.523452 Z M254.131587,61.5553471 C253.388625,56.2307692 251.902701,52.8874296 248.930852,49.9155722 C242.739502,43.9718574 233.204822,41 219.831505,41 C198.409432,41 186.026731,48.9249531 186.026731,62.5459662 C186.026731,70.7185741 190.732157,76.6622889 199.276221,79.0150094 C204.724609,80.6247655 207.696458,80.9962477 221.193602,81.8630394 C232.957168,82.7298311 236.17667,83.9681051 236.17667,87.9305816 C236.17667,92.2645403 230.232974,94.8649156 220.326813,94.8649156 C209.925344,94.8649156 204.848436,91.8930582 204.229301,85.3302064 L183.674018,85.3302064 C184.912288,99.5703565 197.66647,107 220.822121,107 C243.358637,107 255.988992,98.9512195 255.988992,84.587242 C255.988992,75.5478424 250.540604,69.8517824 239.52,67.2514071 C234.9384,66.1369606 227.137299,65.3939962 215.249905,64.6510319 C208.315593,64.2795497 205.839053,62.9174484 205.839053,59.5741088 C205.839053,55.2401501 210.420652,53.1350844 219.831505,53.1350844 C229.737666,53.1350844 233.70013,55.4878049 234.195438,61.5553471 L254.131587,61.5553471 Z M258.246021,73.9380863 C258.246021,93.8742964 273.972051,107 297.62301,107 C320.902489,107 337,93.750469 337,74.5572233 C337,64.4033771 333.656671,56.6022514 326.970012,50.6585366 C319.788045,44.467167 309.510403,41 297.870664,41 C273.972051,41 258.246021,54.1257036 258.246021,73.9380863 Z M297.746837,55.4878049 C308.519787,55.4878049 315.949408,63.1651032 315.949408,74.3095685 C315.949408,84.8348968 308.148306,92.5121951 297.62301,92.5121951 C286.85006,92.5121951 279.296613,84.8348968 279.296613,73.9380863 C279.296613,63.0412758 286.85006,55.4878049 297.746837,55.4878049 Z" id="enso" sketch:type="MSShapeGroup"></path>
        </g>
    </g>
</svg>