<?xml version="1.0" encoding="UTF-8" standalone="no"?>
<svg width="136px" height="28px" viewBox="0 0 136 28" version="1.1" xmlns="http://www.w3.org/2000/svg" xmlns:xlink="http://www.w3.org/1999/xlink" xmlns:sketch="http://www.bohemiancoding.com/sketch/ns">
    <!-- Generator: Sketch 3.4.1 (15681) - http://www.bohemiancoding.com/sketch -->
    <title>Enso Magazine</title>
    <desc>Interactive articles about design and creative thinking.</desc>
    <defs></defs>
    <g id="Page-1" stroke="none" stroke-width="1" fill="none" fill-rule="evenodd" sketch:type="MSPage">
        <path d="M31.3217749,15.5565294 C31.217369,11.7979048 30.6953394,9.34435826 29.3380625,6.83860856 C26.9889294,2.40134346 22.1340543,0 15.6608875,0 C6.05554315,0 0,5.48132747 0,14.0948421 C0,17.9056697 1.252871,21.2466693 3.60200412,23.6480128 C6.26435498,26.362575 10.5449976,27.8242623 15.9741052,27.8242623 C20.5157626,27.8242623 24.0133608,26.6757937 26.9889294,24.2222471 C29.0770477,22.4995442 30.1733098,20.9856537 31.0085572,18.6365134 L21.8730395,18.6365134 C20.8811833,20.9856537 18.8974709,22.0819192 15.7130904,22.0819192 C11.275839,22.0819192 8.40467627,19.5761695 8.35247331,15.5565294 L31.3217749,15.5565294 Z M8.19190967,10.4406238 C8.97495404,6.89081168 11.3240872,5.11590564 15.1349031,5.11590564 C18.9457191,5.11590564 21.2426492,6.89081168 22.0778965,10.4406238 L8.19190967,10.4406238 Z M35.3024558,26.7801999 L43.5505232,26.7801999 L43.5505232,13.3639984 C43.5505232,8.97893643 46.1606711,6.31657737 50.4413137,6.31657737 C52.2162143,6.31657737 53.834506,6.89081168 54.9829711,7.88267093 C56.288045,9.03113954 56.8100746,10.54503 56.8100746,13.1551859 L56.8100746,26.7801999 L65.058142,26.7801999 L65.058142,12.5809516 C65.058142,7.88267093 64.4317065,5.69013994 62.4479941,3.60201519 C60.4120787,1.40948421 57.1232923,0.156609356 53.5734912,0.156609356 C49.8148782,0.156609356 47.1003244,1.25287485 43.5505232,4.1762495 L43.5505232,1.04406238 L35.3024558,1.04406238 L35.3024558,26.7801999 Z M98.5916294,8.66571771 C98.2784116,6.42098361 97.6519761,5.0114994 96.3991051,3.75862455 C93.7889572,1.25287485 89.7693295,0 84.13141,0 C75.1002982,0 69.8800024,3.3409996 69.8800024,9.08334266 C69.8800024,12.5287485 71.8637148,15.0344982 75.4657189,16.0263575 C77.7626491,16.704998 79.0155201,16.8616074 84.7056425,17.2270292 C89.6649235,17.592451 91.0222005,18.1144822 91.0222005,19.784982 C91.0222005,21.6120912 88.5164585,22.7083567 84.3402218,22.7083567 C79.9551733,22.7083567 77.814852,21.4554818 77.5538372,18.6887165 L68.8881462,18.6887165 C69.4101758,24.6920752 74.7870805,27.8242623 84.5490336,27.8242623 C94.049972,27.8242623 99.3746738,24.4310596 99.3746738,18.3754978 C99.3746738,14.5646701 97.0777436,12.1633267 92.4316803,11.0670612 C90.5001709,10.5972331 87.2113845,10.2840144 82.1999005,9.97079568 C79.2765349,9.81418633 78.2324757,9.23995202 78.2324757,7.83046781 C78.2324757,6.00335866 80.1639851,5.11590564 84.13141,5.11590564 C88.3076466,5.11590564 89.9781413,6.10776489 90.1869531,8.66571771 L98.5916294,8.66571771 Z M102.798919,13.8860296 C102.798919,22.2907317 109.428694,27.8242623 119.399459,27.8242623 C129.213615,27.8242623 136,22.2385286 136,14.1470452 C136,9.86638944 134.59052,6.57759296 131.77156,4.07184326 C128.743789,1.46168733 124.410943,0 119.503865,0 C109.428694,0 102.798919,5.53353059 102.798919,13.8860296 Z M119.451662,6.10776489 C123.99332,6.10776489 127.125497,9.34435826 127.125497,14.0426389 C127.125497,18.479904 123.836711,21.7164974 119.399459,21.7164974 C114.857802,21.7164974 111.673421,18.479904 111.673421,13.8860296 C111.673421,9.29215514 114.857802,6.10776489 119.451662,6.10776489 Z" id="enso" fill="#000000" sketch:type="MSShapeGroup"></path>
    </g>
</svg>