<?xml version="1.0" encoding="UTF-8" standalone="no"?>
<svg width="88px" height="40px" viewBox="0 0 88 40" version="1.1" xmlns="http://www.w3.org/2000/svg" xmlns:xlink="http://www.w3.org/1999/xlink" xmlns:sketch="http://www.bohemiancoding.com/sketch/ns">
    <!-- Generator: Sketch 3.4.2 (15857) - http://www.bohemiancoding.com/sketch -->
    <title>Tweet</title>
    <desc>Enso Magazine</desc>
    <defs>
        <path id="path-1" d="M0,0.0001493296 L16.9302143,0.0001493296 L16.9302143,13.824337 L0,13.824337 L0,0.0001493296 Z"></path>
    </defs>
    <g id="Page-1" stroke="none" stroke-width="1" fill="none" fill-rule="evenodd" sketch:type="MSPage">
        <g id="Rectangle-3-Copy-+-tweet-+-Twitter_bird_logo_2012" sketch:type="MSLayerGroup">
            <rect id="Rectangle-3-Copy" stroke="#00B9F3" sketch:type="MSShapeGroup" x="0" y="0" width="88" height="40"></rect>
            <path d="M44.4834615,26.105 C44.9934615,26.105 45.2934615,26.03 45.5484615,25.94 L45.5484615,24.89 C45.2784615,24.995 44.9784615,25.055 44.5884615,25.055 C43.9584615,25.055 43.6134615,24.68 43.6134615,23.915 L43.6134615,19.205 L45.4434615,19.205 L45.4434615,18.155 L43.6134615,18.155 L43.6134615,16.37 L42.3684615,16.37 L42.3684615,18.155 L41.2434615,18.155 L41.2434615,19.205 L42.3684615,19.205 L42.3684615,24.035 C42.3684615,25.265 43.0584615,26.105 44.4834615,26.105 L44.4834615,26.105 Z M48.9407692,26 L50.3057692,26 L52.1357692,20.12 L53.7707692,26 L55.1507692,26 L57.5957692,18.155 L56.3207692,18.155 L54.4757692,24.47 L52.6907692,18.155 L51.6107692,18.155 L49.7057692,24.47 L47.8757692,18.155 L46.5257692,18.155 L48.9407692,26 Z M62.2780769,26.135 C64.0480769,26.135 65.3530769,25.31 65.6230769,23.735 L64.3780769,23.735 C64.2130769,24.65 63.5080769,25.1 62.2930769,25.1 C60.6880769,25.1 59.8330769,24.11 59.7730769,22.325 L65.6830769,22.325 L65.6830769,21.92 C65.6830769,19.115 63.9730769,18.02 62.1580769,18.02 C59.9980769,18.02 58.4830769,19.67 58.4830769,22.04 L58.4830769,22.16 C58.4830769,24.575 60.0580769,26.135 62.2780769,26.135 L62.2780769,26.135 Z M59.8180769,21.32 C60.0280769,19.925 60.8830769,19.055 62.1580769,19.055 C63.4480769,19.055 64.2880769,19.7 64.4080769,21.32 L59.8180769,21.32 Z M70.7403846,26.135 C72.5103846,26.135 73.8153846,25.31 74.0853846,23.735 L72.8403846,23.735 C72.6753846,24.65 71.9703846,25.1 70.7553846,25.1 C69.1503846,25.1 68.2953846,24.11 68.2353846,22.325 L74.1453846,22.325 L74.1453846,21.92 C74.1453846,19.115 72.4353846,18.02 70.6203846,18.02 C68.4603846,18.02 66.9453846,19.67 66.9453846,22.04 L66.9453846,22.16 C66.9453846,24.575 68.5203846,26.135 70.7403846,26.135 L70.7403846,26.135 Z M68.2803846,21.32 C68.4903846,19.925 69.3453846,19.055 70.6203846,19.055 C71.9103846,19.055 72.7503846,19.7 72.8703846,21.32 L68.2803846,21.32 Z M78.3776923,26.105 C78.8876923,26.105 79.1876923,26.03 79.4426923,25.94 L79.4426923,24.89 C79.1726923,24.995 78.8726923,25.055 78.4826923,25.055 C77.8526923,25.055 77.5076923,24.68 77.5076923,23.915 L77.5076923,19.205 L79.3376923,19.205 L79.3376923,18.155 L77.5076923,18.155 L77.5076923,16.37 L76.2626923,16.37 L76.2626923,18.155 L75.1376923,18.155 L75.1376923,19.205 L76.2626923,19.205 L76.2626923,24.035 C76.2626923,25.265 76.9526923,26.105 78.3776923,26.105 L78.3776923,26.105 Z" id="tweet" fill="#00B9F3" sketch:type="MSShapeGroup"></path>
            <g id="Twitter_bird_logo_2012" transform="translate(8.000000, 14.000000)">
                <g id="svg2">
                    <g id="g10" transform="translate(8.484305, 6.969377) scale(1, -1) translate(-8.484305, -6.969377) translate(0.000000, 0.000663)">
                        <g id="g12">
                            <g id="g14">
                                <g id="g16-Clipped">
                                    <mask id="mask-2" sketch:name="path18" fill="white">
                                        <use xlink:href="#path-1"></use>
                                    </mask>
                                    <g id="path18"></g>
                                    <g id="g16" mask="url(#mask-2)" fill="#55ACEE" sketch:type="MSShapeGroup">
                                        <g transform="translate(-0.012386, 0.000000)" id="path22">
                                            <path d="M16.9426001,12.1876597 C16.3199636,11.9100436 15.6503847,11.7224109 14.9478594,11.6378779 C15.6648761,12.0699756 16.215427,12.7538554 16.4747867,13.5685852 C15.8037215,13.1685063 15.0605707,12.8783091 14.2689912,12.7218864 C13.6357028,13.3999672 12.7328984,13.8238144 11.733856,13.8238144 C9.81541217,13.8238144 8.26049294,12.2614535 8.26049294,10.3341061 C8.26049294,10.0604845 8.29092496,9.79405559 8.35038941,9.53880152 C5.4634962,9.684149 2.90408477,11.0739098 1.19087442,13.185057 C0.891867685,12.6698699 0.720596192,12.0704733 0.720596192,11.4308076 C0.720596192,10.2198938 1.33355937,9.15191342 2.26585446,8.52584907 C1.69648946,8.54373129 1.16081397,8.7007887 0.69248032,8.96236438 C0.691947728,8.9476803 0.691947728,8.93314555 0.691947728,8.91856103 C0.691947728,7.22740331 1.88941142,5.81723412 3.47826787,5.49642436 C3.18705183,5.41665747 2.88026679,5.37447186 2.56344921,5.37447186 C2.33940162,5.37447186 2.12216625,5.39576377 1.90971182,5.43669252 C2.3520228,4.05029163 3.63456487,3.04119686 5.15480373,3.01294867 C3.96504404,2.07677652 2.46757037,1.51915491 0.840070072,1.51915491 C0.559889828,1.51915491 0.283190006,1.53573049 0.0112339632,1.56781147 C1.54906073,0.577656669 3.37461071,9.95530667e-05 5.33640502,9.95530667e-05 C11.7252726,9.95530667e-05 15.2185769,5.31760217 15.2185769,9.92964686 C15.2185769,10.0808804 15.2151089,10.2310811 15.2087921,10.3807467 C15.8871649,10.8731735 16.4759881,11.4876524 16.9419437,12.1876349"></path>
                                        </g>
                                    </g>
                                </g>
                            </g>
                        </g>
                    </g>
                </g>
            </g>
        </g>
    </g>
</svg>