<?xml version="1.0" encoding="UTF-8"?>
<svg width="17px" height="17px" viewBox="0 0 17 17" version="1.1" xmlns="http://www.w3.org/2000/svg" xmlns:xlink="http://www.w3.org/1999/xlink">
    <!-- Generator: Sketch 48.2 (47327) - http://www.bohemiancoding.com/sketch -->
    <title>close</title>
    <desc>Created with Sketch.</desc>
    <defs></defs>
    <g id="Page-1" stroke="none" stroke-width="1" fill="none" fill-rule="evenodd">
        <g id="close" fill="#8C8C8C">
            <path d="M9.51015254,8.5 L15.7907906,14.780638 C16.0697365,15.0595839 16.0697365,15.5118446 15.7907906,15.7907906 C15.5118446,16.0697365 15.0595839,16.0697365 14.780638,15.7907906 L8.5,9.51015254 L2.21936199,15.7907906 C1.94041606,16.0697365 1.48815536,16.0697365 1.20920944,15.7907906 C0.930263519,15.5118446 0.930263519,15.0595839 1.20920944,14.780638 L7.48984746,8.5 L1.20920944,2.21936199 C0.930263519,1.94041606 0.930263519,1.48815536 1.20920944,1.20920944 C1.48815536,0.930263519 1.94041606,0.930263519 2.21936199,1.20920944 L8.5,7.48984746 L14.780638,1.20920944 C15.0595839,0.930263519 15.5118446,0.930263519 15.7907906,1.20920944 C16.0697365,1.48815536 16.0697365,1.94041606 15.7907906,2.21936199 L9.51015254,8.5 Z" id="Combined-Shape"></path>
        </g>
    </g>
</svg>