<svg width="139px" height="139px" viewBox="0 0 139 139" version="1.1" xmlns="http://www.w3.org/2000/svg" xmlns:xlink="http://www.w3.org/1999/xlink">
    <defs>
        <linearGradient x1="6.55748304%" y1="69.104435%" x2="95.7508711%" y2="42.9037296%" id="linearGradient-1">
            <stop stop-color="#FFC155" offset="0%"></stop>
            <stop stop-color="#FFA200" offset="100%"></stop>
        </linearGradient>
    </defs>
    <g id="Page-1" stroke="none" stroke-width="1" fill="none" fill-rule="evenodd">
        <g id="emblem">
            <g transform="translate(3.000000, 3.000000)">
                <polygon id="Star" fill="url(#linearGradient-1)" transform="translate(66.500000, 66.500000) rotate(-360.000000) translate(-66.500000, -66.500000) " points="66.5 129.520001 58.8304334 134.569286 52.4767305 127.939958 43.8758843 131.156008 39.1566463 123.279059 30.0558028 124.500608 27.207672 115.771021 18.0631855 114.936815 17.2289791 105.792328 8.49939235 102.944197 9.72094091 93.8433537 1.84399187 89.1241157 5.06004186 80.5232695 -1.56928638 74.1695666 3.47999886 66.5 -1.56928638 58.8304334 5.06004186 52.4767305 1.84399187 43.8758843 9.72094091 39.1566463 8.49939235 30.0558028 17.2289791 27.207672 18.0631855 18.0631855 27.207672 17.2289791 30.0558028 8.49939235 39.1566463 9.72094091 43.8758843 1.84399187 52.4767305 5.06004186 58.8304334 -1.56928638 66.5 3.47999886 74.1695666 -1.56928638 80.5232695 5.06004186 89.1241157 1.84399187 93.8433537 9.72094091 102.944197 8.49939235 105.792328 17.2289791 114.936815 18.0631855 115.771021 27.207672 124.500608 30.0558028 123.279059 39.1566463 131.156008 43.8758843 127.939958 52.4767305 134.569286 58.8304334 129.520001 66.5 134.569286 74.1695666 127.939958 80.5232695 131.156008 89.1241157 123.279059 93.8433537 124.500608 102.944197 115.771021 105.792328 114.936815 114.936815 105.792328 115.771021 102.944197 124.500608 93.8433537 123.279059 89.1241157 131.156008 80.5232695 127.939958 74.1695666 134.569286"></polygon>
                <g id="truck" transform="translate(14.000000, 39.000000)">
                    <path d="M38.5,42 C38.6508534,42.9943108 38.6508534,43.0056892 38.5,44 L52.5,44 C52.3491466,43.0056892 52.3491466,42.9943108 52.5,42 L38.5,42 Z" id="Shape" fill="#FFFFFF" fill-rule="nonzero"></path>
                    <path d="M29,10.5 C29.0099381,9.53103142 29.765625,9 30.5,9 L51,9 C52.1155596,9.00591414 52.8133436,10.4174004 53.12,11.49 L59.26,33 C60.1874535,32.6155092 60.2219297,32.5260516 61.21875,32.40625 L54.9375,10.53125 C54.2609287,8.1691731 53.4570514,7.00739203 51,7 L30.5,7 C28.8905736,7.00291828 26.9874994,8.24989584 27,10.5 L27,32.38 C27.659553,32.2563424 28.3896484,32.2406921 29,32.3826294 C29,31.6299438 29,10.5 29,10.5 Z" id="Shape" fill="#FFFFFF" fill-rule="nonzero"></path>
                    <path d="M101.042798,40.7550645 C101.042798,39.9266374 100.371225,39.7550645 99.5427979,39.7550645 L71.6996153,39.699491 L71.6996153,5.86949099 C71.6996153,5.04106386 71.5280424,4.36949099 70.6996153,4.36949099 C69.8711882,4.36949099 69.6996153,5.04106386 69.6996153,5.86949099 L69.6996153,39.999491 C69.6996153,40.8279181 70.7011882,41.699491 71.5296153,41.699491 L99.5427979,41.7550645 C100.371225,41.7550645 101.042798,41.5834917 101.042798,40.7550645 Z" id="Shape" fill="#FFFFFF" fill-rule="nonzero" transform="translate(85.371207, 23.062278) rotate(-16.000000) translate(-85.371207, -23.062278) "></path>
                    <circle id="Oval-11" stroke="#FFFFFF" stroke-width="2" cx="28" cy="43" r="7"></circle>
                    <circle id="Oval-11" stroke="#FFFFFF" stroke-width="2" cx="63" cy="43" r="7"></circle>
                    <g id="block" transform="translate(87.690861, 23.355325) rotate(-16.000000) translate(-87.690861, -23.355325) translate(74.690861, 10.355325)" fill="#FFFFFF">
                        <path d="M2.17788254,0.246123165 L23.1778825,0.246123165 C24.282452,0.246123165 25.1778825,1.14155367 25.1778825,2.24612316 L25.1778825,23.2461232 C25.1778825,24.3506927 24.282452,25.2461232 23.1778825,25.2461232 L2.17788254,25.2461232 C1.07331304,25.2461232 0.177882539,24.3506927 0.177882539,23.2461232 L0.177882539,2.24612316 C0.177882539,1.14155367 1.07331304,0.246123165 2.17788254,0.246123165 Z M9.60719913,15.8039099 L7.15123556,13.6064688 L7.15123556,13.5695371 L9.60719913,11.372096 L8.38845029,10.2456766 L4.6768061,13.588003 L8.38845029,16.9303293 L9.60719913,15.8039099 Z M14.9285063,8.26982621 L13.1003831,8.26982621 L10.3489652,19.1462363 L12.1770885,19.1462363 L14.9285063,8.26982621 Z M15.6702718,15.8039099 L16.8890207,16.9303293 L20.6006649,13.588003 L16.8890207,10.2456766 L15.6702718,11.372096 L18.1262354,13.5695371 L18.1262354,13.6064688 L15.6702718,15.8039099 Z" id="Combined-Shape"></path>
                    </g>
                    <path d="M5.5,31 L17.5,31" id="Line-7" stroke="#FFFFFF" stroke-width="2" stroke-linecap="round"></path>
                    <path d="M0.5,37 L12.5,37" id="Line-7" stroke="#FFFFFF" stroke-width="2" stroke-linecap="round"></path>
                </g>
            </g>
        </g>
    </g>
</svg>