<svg width="70px" height="70px" viewBox="0 0 70 70" version="1.1" xmlns="http://www.w3.org/2000/svg" xmlns:xlink="http://www.w3.org/1999/xlink">
    <g id="morph" stroke="none" stroke-width="1" fill="none" fill-rule="evenodd" transform="translate(-93.000000, -151.000000)">
        <g id="zip-icon" transform="translate(105.000000, 158.000000)">
            <path d="M31.3679296,0 L30.6666667,0 L2,0 C0.8954305,2.02906125e-16 -1.3527075e-16,0.8954305 0,2 L-2.22044605e-16,54 C3.83744532e-15,55.1045695 0.8954305,56 2,56 L44,56 C45.1045695,56 46,55.1045695 46,54 L46,15.2727273 L46,14.4090199 C46,13.3334532 45.5668462,12.303206 44.7982866,11.5507701 L34.1662162,1.14175014 C33.4186548,0.409871789 32.4141103,6.91324708e-15 31.3679296,7.10542736e-15 Z" id="Shape" stroke="#0071AA" stroke-width="2" stroke-linecap="round" stroke-linejoin="round" fill-rule="nonzero"></path>
            <g id="zip" transform="translate(19.000000, 3.000000)" fill="#0073AA">
                <path d="M5,2 L5,4 L6,4 C6.55228475,4 7,4.44771525 7,5 C7,5.55228475 6.55228475,6 6,6 L5,6 L5,8 L6,8 C6.55228475,8 7,8.44771525 7,9 C7,9.55228475 6.55228475,10 6,10 L5,10 L5,12 L6,12 C6.55228475,12 7,12.4477153 7,13 C7,13.5522847 6.55228475,14 6,14 L5,14 L5,16 L6,16 C6.55228475,16 7,16.4477153 7,17 C7,17.5522847 6.55228475,18 6,18 L5,18 L5,20 L6,20 C6.55228475,20 7,20.4477153 7,21 C7,21.5522847 6.55228475,22 6,22 L5,22 L5,24 L6,24 C6.55228475,24 7,24.4477153 7,25 C7,25.5522847 6.55228475,26 6,26 L5,26 L5,28 L6,28 C6.55228475,28 7,28.4477153 7,29 C7,29.5522847 6.55228475,30 6,30 L4,30 C3.44771525,30 3,29.5522847 3,29 L3,28 L2,28 C1.44771525,28 1,27.5522847 1,27 C1,26.4477153 1.44771525,26 2,26 L3,26 L3,24 L2,24 C1.44771525,24 1,23.5522847 1,23 C1,22.4477153 1.44771525,22 2,22 L3,22 L3,20 L2,20 C1.44771525,20 1,19.5522847 1,19 C1,18.4477153 1.44771525,18 2,18 L3,18 L3,16 L2,16 C1.44771525,16 1,15.5522847 1,15 C1,14.4477153 1.44771525,14 2,14 L3,14 L3,12 L2,12 C1.44771525,12 1,11.5522847 1,11 C1,10.4477153 1.44771525,10 2,10 L3,10 L3,8 L2,8 C1.44771525,8 1,7.55228475 1,7 C1,6.44771525 1.44771525,6 2,6 L3,6 L3,4 L2,4 C1.44771525,4 1,3.55228475 1,3 C1,2.44771525 1.44771525,2 2,2 L3,2 L3,1 C3,0.44771525 3.44771525,1.01453063e-16 4,0 L6,0 C6.55228475,-1.01453063e-16 7,0.44771525 7,1 C7,1.55228475 6.55228475,2 6,2 L5,2 Z" id="Combined-Shape"></path>
                <path d="M3.18558711,37.3713875 L0.840656829,33.5200502 C0.553441041,33.0483241 0.703016222,32.4330801 1.17474235,32.1458643 C1.33143167,32.0504622 1.51134472,32 1.69479253,32 L6.38465309,32 C6.93693784,32 7.38465309,32.4477153 7.38465309,33 C7.38465309,33.1834478 7.33419086,33.3633609 7.23878879,33.5200502 L4.89385852,37.3713875 C4.60664273,37.8431136 3.99139875,37.9926888 3.51967262,37.705473 C3.38322428,37.6223949 3.26866523,37.5078358 3.18558711,37.3713875 Z" id="Triangle"></path>
            </g>
        </g>
    </g>
</svg>