<svg width="70px" height="70px" viewBox="0 0 70 70" version="1.1" xmlns="http://www.w3.org/2000/svg" xmlns:xlink="http://www.w3.org/1999/xlink">
    <g stroke="none" stroke-width="1" fill="none" fill-rule="evenodd" transform="translate(-209.000000, -151.000000)" stroke-linecap="round" stroke-linejoin="round">
        <path d="M254,158 L251.666667,158 L223,158 C221.895431,158 221,158.895431 221,160 L221,212.00002 C221,213.10459 221.895431,214.00002 223,214.00002 L265.000012,214.000021 C266.104581,214.000021 267.000012,213.10459 267.000012,212.000021 C267.000012,212.000021 267.000012,212.00002 267.000012,212.00002 L267,173.272727 L266.999999,171.521692 C266.999999,170.982647 266.891046,170.449163 266.679686,169.953284 C265.415225,166.986697 263.938663,164.543936 262.25,162.625 C260.416667,160.541667 257.666667,159 254,158 Z" id="Shape" stroke="#2C89B6" stroke-width="2" fill-rule="nonzero"></path>
    </g>
</svg>