<?xml version="1.0" encoding="UTF-8"?>
<svg width="28px" height="28px" viewBox="0 0 28 28" version="1.1" xmlns="http://www.w3.org/2000/svg" xmlns:xlink="http://www.w3.org/1999/xlink">
    <!-- Generator: Sketch 46.2 (44496) - http://www.bohemiancoding.com/sketch -->
    <title>icons</title>
    <desc>Created with Sketch.</desc>
    <defs></defs>
    <g id="Page-1" stroke="none" stroke-width="1" fill="none" fill-rule="evenodd">
        <g id="icons" fill="#999999">
            <g transform="translate(-1.000000, 0.000000)" id="Combined-shape-3196">
                <path d="M18.28629,17.704325 L15.99534,15.4209 L15.99534,25.00865 C15.99534,25.561075 15.54498,26.009075 14.989401,26.009075 C14.433903,26.009075 13.983462,25.561075 13.983462,25.00865 L13.983462,15.42045 L11.692053,17.704325 C11.29923,18.095025 10.661949,18.095025 10.269558,17.704325 C9.876735,17.313725 9.876735,16.680275 10.269558,16.289775 L14.276223,12.3 C14.323743,12.252525 14.376312,12.209975 14.432931,12.1724 C14.448942,12.1617 14.467032,12.15495 14.48388,12.14515 C14.523624,12.121875 14.563395,12.09845 14.60619,12.0809 C14.629005,12.071675 14.652954,12.06695 14.67585,12.0594 C14.715054,12.0467 14.753502,12.032625 14.794245,12.0244 C14.827752,12.0181 14.861691,12.01765 14.894874,12.0144 C14.926302,12.01135 14.956758,12.00495 14.989185,12.00495 C15.024663,12.00495 15.058386,12.0117 15.092784,12.0154 C15.12324,12.01845 15.153453,12.018675 15.183045,12.0244 C15.228297,12.0332 15.270633,12.04815 15.313347,12.062675 C15.332193,12.068975 15.352119,12.0727 15.370965,12.08045 C15.420024,12.100375 15.465708,12.126375 15.511041,12.1535 C15.521868,12.1599 15.533613,12.1644 15.54444,12.1715 C15.602274,12.20975 15.655923,12.253425 15.704982,12.302475 L19.708731,16.289325 C20.101554,16.68005 20.101554,17.3135 19.708731,17.703875 C19.316205,18.09525 18.67914,18.09525 18.28629,17.704325 Z M16.71435,4.00515 C21.833118,4.00515 25.997949,8.041725 25.998327,13.003575 C25.998327,15.413925 25.027029,17.678325 23.26455,19.380275 C22.793832,19.83425 22.032702,19.833 21.564333,19.377025 C21.095667,18.921025 21.097206,18.182925 21.567411,17.72875 C22.873482,16.467575 23.593464,14.789475 23.593464,13.003575 C23.593464,9.327325 20.507364,6.3363 16.714728,6.3363 C13.830966,6.3363 11.231622,8.100825 10.247445,10.72735 L9.931815,11.569225 L9.011385,11.490225 C8.856891,11.47705 8.739954,11.4713 8.633196,11.4713 C6.301449,11.4713 4.404321,13.31045 4.404321,15.57125 C4.404321,17.8316 6.301125,19.670725 8.633196,19.670725 C9.297261,19.670725 9.835614,20.19255 9.835614,20.83625 C9.835614,21.479925 9.297261,22.00175 8.633196,22.00175 C4.974831,22.00175 1.999458,19.117075 1.999458,15.57125 C1.999458,12.125125 4.80951,9.30335 8.32545,9.146925 C9.848574,6.039875 13.117005,4.00515 16.71435,4.00515 Z"></path>
            </g>
        </g>
    </g>
</svg>