<svg xml:space="preserve" viewbox="0 0 16176 6544" height="6544px" width="16176px" y="0px" x="0px" xmlns:xlink="http://www.w3.org/1999/xlink" xmlns="http://www.w3.org/2000/svg" id="Layer_1">
<path d="M1505.024,2010.094h222.461c225.279,0,335.104,99.967,335.104,284.414c0,180.223-111.232,287.229-333.695,287.229h-198.525
	v425.215h-25.344V2010.094z M1714.813,2556.393c222.463,0,321.023-91.52,321.023-261.885c0-170.367-102.783-259.07-312.574-259.07
	h-192.895v520.955H1714.813z"/>
<path d="M2289.957,2035.438v-25.344h2963.131v25.344H3784.193v971.514h-25.344v-971.514H2289.957z"/>
<path d="M6137.959,3001.318l-2.814,5.633h-25.344l-312.574-439.293h-257.662v439.293h-25.344v-996.857h223.871
	c223.869,0,333.693,99.967,333.693,277.373c0,145.023-84.48,252.031-246.398,275.967L6137.959,3001.318z M5762.028,2542.314
	c194.303,0,283.006-108.416,283.006-254.848c0-163.326-102.783-252.029-311.166-252.029h-194.303v506.877H5762.028z"/>
<path d="M6705.313,2010.094h212.605c216.832,0,333.693,84.479,333.693,240.766c0,119.68-83.07,208.383-218.238,236.543v2.814
	c173.184,22.529,266.111,111.232,266.111,249.215c0,183.039-121.088,267.52-382.975,267.52h-211.197V2010.094z M6946.079,2478.955
	c159.104,0,278.783-95.744,278.783-226.688c0-137.982-107.008-216.83-299.902-216.83h-194.303v443.518H6946.079z M6922.143,2981.607
	c239.357,0,350.59-76.031,350.59-242.176c0-146.43-121.088-235.133-319.613-235.133h-222.463v477.309H6922.143z"/>
<path d="M8089.344,2010.094l4.225,25.344h-506.876v447.74h473.083v25.344h-473.083v473.086h506.876l-4.225,25.344h-527.996v-996.857
	H8089.344z"/>
<path d="M8387.822,2010.094h25.344v478.717h684.283v-478.717h25.344v996.857h-25.344v-492.797h-684.283v492.797h-25.344V2010.094z"/>
<path d="M10109.787,3001.318l-2.814,5.633h-25.344l-312.574-439.293h-257.662v439.293h-25.344v-996.857h223.871
	c223.869,0,333.693,99.967,333.693,277.373c0,145.023-84.48,252.031-246.398,275.967L10109.787,3001.318z M9733.855,2542.314
	c194.303,0,283.006-108.416,283.006-254.848c0-163.326-102.783-252.029-311.166-252.029h-194.303v506.877H9733.855z"/>
<path d="M10860.242,2010.094l4.225,25.344h-506.877v447.74h473.084v25.344h-473.084v473.086h506.877l-4.225,25.344h-527.996
	v-996.857H10860.242z"/>
<path d="M11158.719,2010.094h40.832l547.707,715.26l174.592,228.094h4.223V2700.01v-689.916h25.344v1016.568h-5.631
	l-582.908-760.314l-174.59-228.094h-4.225v253.438v715.26h-25.344V2010.094z"/>
<path d="M12221.748,2814.057l21.119-14.082l5.633,1.41c71.807,146.43,167.551,205.566,299.902,205.566
	c150.654,0,256.254-102.785,256.254-225.279c0-125.311-61.951-194.303-294.27-302.717
	c-187.264-87.297-250.623-152.062-250.623-277.375c0-129.535,111.232-218.238,263.295-218.238
	c122.494,0,212.605,52.096,273.15,166.143l-19.713,12.672l-5.633-1.408c-52.096-102.783-133.758-152.062-249.213-152.062
	c-136.576,0-235.135,84.48-235.135,190.078c0,119.68,56.32,168.959,270.334,271.742
	c212.607,101.375,274.559,173.184,274.559,311.166c0,146.432-122.496,250.623-281.598,250.623
	C12409.012,3032.295,12300.596,2973.158,12221.748,2814.057z"/>
<path d="M15003.189,2010.094v996.857h-25.344v-996.857H15003.189z"/>
<path d="M15273.502,2814.057l21.119-14.082l5.633,1.41c71.807,146.43,167.551,205.566,299.902,205.566
	c150.654,0,256.254-102.785,256.254-225.279c0-125.311-61.951-194.303-294.27-302.717
	c-187.264-87.297-250.623-152.062-250.623-277.375c0-129.535,111.232-218.238,263.295-218.238
	c122.494,0,212.605,52.096,273.15,166.143l-19.713,12.672l-5.633-1.408c-52.096-102.783-133.758-152.062-249.213-152.062
	c-136.576,0-235.135,84.48-235.135,190.078c0,119.68,56.32,168.959,270.334,271.742
	c212.607,101.375,274.559,173.184,274.559,311.166c0,146.432-122.496,250.623-281.598,250.623
	C15460.766,3032.295,15352.35,2973.158,15273.502,2814.057z"/>
<path d="M175.727,4108.521c0-299.902,218.238-525.18,506.877-525.18c199.936,0,344.957,88.703,449.148,271.742l-18.303,14.08
	l-5.633-1.408c-91.52-164.734-229.502-259.07-425.213-259.07c-271.742,0-480.125,216.83-480.125,499.836
	c0,281.598,211.199,499.836,482.941,499.836c187.264,0,339.326-91.52,430.846-256.254l5.631-1.406l16.896,12.672
	c-107.008,181.629-256.254,270.332-451.965,270.332C393.965,4633.701,175.727,4409.832,175.727,4108.521z"/>
<path d="M1323.219,4108.521c0-294.27,202.75-525.18,520.955-525.18c318.207,0,520.957,230.91,520.957,525.18
	c0,295.678-206.975,525.18-520.957,525.18C1530.194,4633.701,1323.219,4404.199,1323.219,4108.521z M2338.379,4108.521
	c0-280.189-199.936-499.836-494.205-499.836s-494.203,219.646-494.203,499.836c0,277.375,201.342,499.836,494.203,499.836
	S2338.379,4385.896,2338.379,4108.521z"/>
<path d="M2641.084,3610.094h40.832l547.707,715.26l174.592,228.094h4.223V4300.01v-689.916h25.344v1016.568h-5.631l-582.908-760.314
	l-174.59-228.094h-4.225v253.438v715.26h-25.344V3610.094z"/>
<path d="M3704.112,4414.057l21.119-14.082l5.633,1.41c71.807,146.43,167.551,205.566,299.902,205.566
	c150.654,0,256.254-102.785,256.254-225.279c0-125.311-61.951-194.303-294.27-302.717
	c-187.264-87.297-250.623-152.062-250.623-277.375c0-129.535,111.232-218.238,263.295-218.238
	c122.494,0,212.605,52.096,273.15,166.143l-19.713,12.672l-5.633-1.408c-52.096-102.783-133.758-152.062-249.213-152.062
	c-136.576,0-235.135,84.48-235.135,190.078c0,119.68,56.32,168.959,270.334,271.742
	c212.607,101.375,274.559,173.184,274.559,311.166c0,146.432-122.496,250.623-281.598,250.623
	C3891.375,4632.295,3782.959,4573.158,3704.112,4414.057z"/>
<path d="M4609.434,3610.094v996.857h-25.344v-996.857H4609.434z"/>
<path d="M4972.674,3610.094h223.871c368.893,0,560.379,171.775,560.379,488.572c0,328.062-205.566,508.285-560.379,508.285h-223.871
	V3610.094z M5178.241,4581.607c353.404,0,551.932-159.104,551.932-482.941c0-311.166-190.078-463.229-547.707-463.229h-184.447
	v946.17H5178.241z"/>
<path d="M6558.055,3610.094l4.225,25.344h-506.877v447.74h473.084v25.344h-473.084v473.086h506.877l-4.225,25.344h-527.996v-996.857
	H6558.055z"/>
<path d="M7480.272,4601.318l-2.814,5.633h-25.344l-312.574-439.293h-257.662v439.293h-25.344v-996.857h223.871
	c223.869,0,333.693,99.967,333.693,277.373c0,145.023-84.48,252.031-246.398,275.967L7480.272,4601.318z M7104.34,4142.314
	c194.303,0,283.006-108.416,283.006-254.848c0-163.326-102.783-252.029-311.166-252.029h-194.303v506.877H7104.34z"/>
<path d="M8230.727,3610.094l4.225,25.344h-506.876v447.74h473.083v25.344h-473.083v473.086h506.876l-4.225,25.344h-527.996v-996.857
	H8230.727z"/>
<path d="M8529.203,3610.094h223.869c368.895,0,560.381,171.775,560.381,488.572c0,328.062-205.566,508.285-560.381,508.285h-223.869
	V3610.094z M8734.77,4581.607c353.404,0,551.932-159.104,551.932-482.941c0-311.166-190.078-463.229-547.707-463.229h-184.447
	v946.17H8734.77z"/>
<path d="M9547.369,3635.438v-25.344H11110.5v25.344h-768.895v971.514h-25.344v-971.514H9547.369z"/>
<path d="M11895.898,3610.094l4.225,25.344h-506.877v447.74h473.084v25.344h-473.084v473.086h506.877l-4.225,25.344h-527.996
	v-996.857H11895.898z"/>
<path d="M12973.502,3610.094l2.816,25.344h-480.125v447.74h446.332v25.344h-446.332v498.43h-25.344v-996.857H12973.502z"/>
<path d="M13252.264,3610.094v996.857h-25.344v-996.857H13252.264z"/>
<path d="M1002.368,5210.094v996.857h-25.344v-996.857H1002.368z"/>
<path d="M14239.242,4601.318l-2.814,5.633h-25.344l-312.574-439.293h-257.662v439.293h-25.344v-996.857h223.869
	c223.871,0,333.695,99.967,333.695,277.373c0,145.023-84.48,252.031-246.398,275.967L14239.242,4601.318z M13863.311,4142.314
	c194.303,0,283.006-108.416,283.006-254.848c0-163.326-102.783-252.029-311.166-252.029h-194.303v506.877H13863.311z"/>
<path d="M14368.771,4414.057l21.119-14.082l5.633,1.41c71.807,146.43,167.551,205.566,299.902,205.566
	c150.654,0,256.254-102.785,256.254-225.279c0-125.311-61.951-194.303-294.27-302.717
	c-187.264-87.297-250.623-152.062-250.623-277.375c0-129.535,111.232-218.238,263.295-218.238
	c122.494,0,212.605,52.096,273.15,166.143l-19.713,12.672l-5.633-1.408c-52.096-102.783-133.758-152.062-249.213-152.062
	c-136.576,0-235.135,84.48-235.135,190.078c0,119.68,56.32,168.959,270.334,271.742
	c212.607,101.375,274.559,173.184,274.559,311.166c0,146.432-122.496,250.623-281.598,250.623
	C14556.035,4632.295,14447.619,4573.158,14368.771,4414.057z"/>
<path d="M15093.871,3635.438v-25.344h763.131v25.344h-368.895v971.514h-25.344v-971.514H15093.871z"/>
<path d="M1365.608,5210.094h40.832l547.707,715.26l174.592,228.094h4.223V5900.01v-689.916h25.344v1016.568h-5.631l-582.908-760.314
	l-174.59-228.094h-4.225v253.438v715.26h-25.344V5210.094z"/>
<path d="M2521.563,5210.094h223.869c368.895,0,560.381,171.775,560.381,488.572c0,328.062-205.566,508.285-560.381,508.285h-223.869
	V5210.094z M2727.129,6181.607c353.404,0,551.932-159.104,551.932-482.941c0-311.166-190.078-463.229-547.707-463.229h-184.447
	v946.17H2727.129z"/>
<path d="M3564.87,5808.49v-598.396h25.344v595.58c0,267.518,118.271,402.684,346.365,402.684
	c230.91,0,346.365-135.166,346.365-402.684v-595.58h25.344v598.396c0,284.414-125.311,425.211-371.709,425.211
	S3564.87,6094.311,3564.87,5808.49z"/>
<path d="M4479.773,5235.438v-25.344h1563.131v25.344h-768.895v971.514h-25.344v-971.514H4479.773z"/>
<path d="M6332.657,5210.094v996.857h-25.344v-996.857H6332.657z"/>
<path d="M7223.895,5907.049h-547.709l-125.311,299.902h-29.568l425.213-1001.082h5.633l428.029,1001.082h-29.568L7223.895,5907.049z
	 M7214.04,5881.705l-149.248-353.406l-114.047-266.109h-2.816c-38.016,88.703-77.439,180.223-112.639,264.703l-147.838,354.812
	H7214.04z"/>
<path d="M7594.186,5210.094v971.514h504.061l-4.225,25.344h-525.18v-996.857H7594.186z"/>
<path d="M8736.055,5210.094h223.869c368.895,0,560.381,171.775,560.381,488.572c0,328.062-205.566,508.285-560.381,508.285h-223.869
	V5210.094z M8941.621,6181.607c353.404,0,551.932-159.104,551.932-482.941c0-311.166-190.078-463.229-547.707-463.229h-184.447
	v946.17H8941.621z"/>
<path d="M10321.438,5210.094l4.225,25.344h-506.877v447.74h473.084v25.344h-473.084v473.086h506.877l-4.225,25.344h-527.996
	v-996.857H10321.438z"/>
<path d="M10526.986,6014.057l21.119-14.082l5.633,1.41c71.807,146.43,167.551,205.566,299.902,205.566
	c150.654,0,256.254-102.785,256.254-225.279c0-125.311-61.951-194.303-294.27-302.717
	c-187.264-87.297-250.623-152.062-250.623-277.375c0-129.535,111.232-218.238,263.295-218.238
	c122.494,0,212.605,52.096,273.15,166.143l-19.713,12.672l-5.633-1.408c-52.096-102.783-133.758-152.062-249.213-152.062
	c-136.576,0-235.135,84.48-235.135,190.078c0,119.68,56.32,168.959,270.334,271.742
	c212.607,101.375,274.559,173.184,274.559,311.166c0,146.432-122.496,250.623-281.598,250.623
	C10714.25,6232.295,10605.834,6173.158,10526.986,6014.057z"/>
<path d="M11436.309,5210.094v996.857h-25.344v-996.857H11436.309z"/>
<path d="M11708.254,5708.521c0-299.902,216.83-525.18,506.875-525.18c198.527,0,347.773,88.703,451.965,271.742l-16.896,12.672
	l-5.631-1.408c-91.52-164.734-232.318-257.662-429.438-257.662c-273.148,0-480.123,216.83-480.123,499.836
	s211.197,499.836,478.715,499.836c191.488,0,347.773-116.863,439.293-284.414v-187.262h-357.629v-25.344h381.564v495.613h-25.344
	v-70.4c0-46.463,0-118.271,1.408-164.734l-1.408-1.408c-101.375,159.102-250.621,263.293-436.477,263.293
	C11927.9,6233.701,11708.254,6009.832,11708.254,5708.521z"/>
<path d="M13013.443,5210.094h40.832l547.707,715.26l174.592,228.094h4.223V5900.01v-689.916h25.344v1016.568h-5.631
	l-582.908-760.314l-174.59-228.094h-4.225v253.438v715.26h-25.344V5210.094z"/>
<path d="M14697.395,5210.094l4.225,25.344h-506.877v447.74h473.084v25.344h-473.084v473.086h506.877l-4.225,25.344h-527.996
	v-996.857H14697.395z"/>
<path d="M15619.611,6201.318l-2.814,5.633h-25.344l-312.574-439.293h-257.662v439.293h-25.344v-996.857h223.871
	c223.869,0,333.693,99.967,333.693,277.373c0,145.023-84.48,252.031-246.398,275.967L15619.611,6201.318z M15243.68,5742.314
	c194.303,0,283.006-108.416,283.006-254.848c0-163.326-102.783-252.029-311.166-252.029h-194.303v506.877H15243.68z"/>
<path d="M15820.936,6190.055c0-18.305,11.264-29.568,26.752-29.568s26.752,11.264,26.752,29.568
	c0,18.303-11.264,29.568-26.752,29.568S15820.936,6208.357,15820.936,6190.055z"/>
<g>
	<path d="M1767.127,908.521c0-299.902,216.832-525.18,506.877-525.18c198.527,0,347.773,88.703,451.965,271.742l-16.895,12.672
		l-5.633-1.408c-91.52-164.734-232.318-257.662-429.438-257.662c-273.15,0-480.125,216.83-480.125,499.836
		s211.199,499.836,478.717,499.836c191.488,0,347.773-116.863,439.293-284.414V936.682H2354.26v-25.344h381.564v495.613h-25.344
		v-70.4c0-46.463,0-118.271,1.408-164.734l-1.408-1.408c-101.375,159.102-250.621,263.293-436.477,263.293
		C1986.774,1433.701,1767.127,1209.832,1767.127,908.521z"/>
	<path d="M3600.315,410.094l4.225,25.344h-506.877v447.74h473.084v25.344h-473.084v473.086h506.877l-4.225,25.344h-527.996V410.094
		H3600.315z"/>
	<path d="M4522.53,1401.318l-2.814,5.633h-25.344l-312.574-439.293h-257.662v439.293h-25.344V410.094h223.869
		c223.871,0,333.695,99.967,333.695,277.373c0,145.023-84.48,252.031-246.398,275.967L4522.53,1401.318z M4146.598,942.314
		c194.303,0,283.006-108.416,283.006-254.848c0-163.326-102.783-252.029-311.166-252.029h-194.303v506.877H4146.598z"/>
	<path d="M5215.256,1229.543l428.029-819.449h40.832v996.857h-25.344V441.068h-2.816l-439.293,839.162h-5.631l-437.885-839.162
		h-2.816v965.883h-25.344V410.094h42.24l425.213,819.449H5215.256z"/>
	<path d="M6575.354,1107.049h-547.709l-125.311,299.902h-29.568l425.213-1001.082h5.633l428.029,1001.082h-29.568L6575.354,1107.049
		z M6565.499,1081.705L6416.25,728.299l-114.047-266.109h-2.816c-38.016,88.703-77.439,180.223-112.639,264.701l-147.838,354.814
		H6565.499z"/>
	<path d="M6920.303,410.094h40.832l547.707,715.26l174.592,228.094h4.223v-253.439V410.094H7713v1016.568h-5.631l-582.908-760.314
		l-174.59-228.094h-4.225v253.438v715.26h-25.344V410.094z"/>
	<path d="M9040.727,1107.049h-547.709l-125.311,299.902h-29.568l425.213-1001.082h5.633l428.029,1001.082h-29.568L9040.727,1107.049
		z M9030.871,1081.705l-149.248-353.406l-114.047-266.109h-2.816c-38.016,88.703-77.439,180.223-112.639,264.701l-147.838,354.814
		H9030.871z"/>
	<path d="M10009.412,1401.318l-2.814,5.633h-25.344L9668.68,967.658h-257.662v439.293h-25.344V410.094h223.869
		c223.871,0,333.695,99.967,333.695,277.373c0,145.023-84.48,252.031-246.398,275.967L10009.412,1401.318z M9633.48,942.314
		c194.303,0,283.006-108.416,283.006-254.848c0-163.326-102.783-252.029-311.166-252.029h-194.303v506.877H9633.48z"/>
	<path d="M10144.576,908.521c0-299.902,218.238-525.18,506.875-525.18c199.936,0,344.959,88.703,449.148,271.742l-18.303,14.08
		l-5.633-1.408c-91.52-164.734-229.502-259.07-425.213-259.07c-271.742,0-480.123,216.83-480.123,499.836
		c0,281.598,211.197,499.836,482.939,499.836c187.264,0,339.326-91.52,430.846-256.254l5.631-1.406l16.896,12.672
		c-107.008,181.629-256.254,270.332-451.965,270.332C10362.814,1433.701,10144.576,1209.832,10144.576,908.521z"/>
	<path d="M11379.361,410.094h25.344v478.717h684.283V410.094h25.344v996.857h-25.344V914.154h-684.283v492.797h-25.344V410.094z"/>
	<path d="M12297.229,435.438v-25.344h1583.131v25.344h-788.895v971.514h-25.344V435.438H12297.229z"/>
	<path d="M14013.965,908.521c0-299.902,218.238-525.18,506.875-525.18c199.936,0,344.957,88.703,449.148,271.742l-18.303,14.08
		l-5.633-1.408c-91.52-164.734-229.502-259.07-425.213-259.07c-271.742,0-480.123,216.83-480.123,499.836
		c0,281.598,211.197,499.836,482.939,499.836c187.264,0,339.326-91.52,430.846-256.254l5.631-1.406l16.896,12.672
		c-107.008,181.629-256.254,270.332-451.965,270.332C14232.203,1433.701,14013.965,1209.832,14013.965,908.521z"/>
	<path d="M15093.871,435.438v-25.344h763.131v25.344h-368.895v971.514h-25.344V435.438H15093.871z"/>
	<rect height="586" width="26" y="820.5" x="12581.5"/>
	<polygon points="13486.5,1117.5 13759.5,1117.5 13759.5,1094.5 13486.5,1094.5 13486.5,844.5 13779.648,844.5 13776.354,820.5 
		13459.5,820.5 13459.5,1406.5 13776.354,1406.5 13779.648,1382.5 13486.5,1382.5 	"/>
</g>
<polygon points="2315.5,2718.5 3494.5,2718.5 3494.5,2694.5 2315.5,2694.5 2315.5,2444.5 3514.822,2444.5 3511.529,2420.5 
	2289.5,2420.5 2289.5,3006.5 3511.529,3006.5 3514.822,2983.5 2315.5,2983.5 "/>
<polygon points="4053.5,2718.5 5232.5,2718.5 5232.5,2694.5 4053.5,2694.5 4053.5,2444.5 5253.087,2444.5 5249.794,2420.5 
	4027.5,2420.5 4027.5,3006.5 5249.794,3006.5 5253.087,2983.5 4053.5,2983.5 "/>
<polygon points="10697.5,4020.5 10670.5,4020.5 10670.5,4606.5 10697.5,4606.5 10697.5,4321.5 11084.5,4321.5 11084.5,4606.5 
	11110.5,4606.5 11110.5,4020.5 11084.5,4020.5 11084.5,4297.5 10697.5,4297.5 "/>
<path d="M4781.528,5881.502c-65.961-31.147-99.975-51.367-121.317-72.117c-22.076-21.463-31.081-44.302-31.081-78.83
	c0-29.337,12.997-56.314,36.597-75.963c23.979-19.963,57.568-30.958,94.581-30.958c32.255,0,59.169,6.857,82.28,20.962
	c22.105,13.492,40.224,33.327,55.355,60.609l3.949,0.987l19.805-13.439c-17.084-30.039-38.849-52.967-64.729-68.179
	c-26.886-15.803-59.126-23.815-95.826-23.815c-46.582,0-86.51,12.829-115.466,37.102c-28.527,23.912-43.606,56.544-43.606,94.367
	c0,38.224,10.128,66.454,32.839,91.535c23.017,25.419,59.774,48.657,119.18,75.347c65.538,29.557,105.542,54.024,129.712,79.336
	c23.56,24.673,33.612,51.1,33.612,88.365c0,34.327-14.294,66.319-40.248,90.083c-26.586,24.343-63.335,37.749-103.477,37.749
	c-75.616,0-127.422-34.982-167.803-113.37l-3.881-0.97l-20.753,14.312c22.501,43.408,49.186,74.278,81.515,94.316
	c31.035,19.236,67.592,28.587,111.759,28.587c47.272,0,90.518-15.345,121.77-43.207c31.067-27.696,48.176-65.875,48.176-107.501
	c0-42.992-9.87-72.857-33.002-99.861C4887.391,5938.839,4847.315,5912.486,4781.528,5881.502z"/>
<path d="M5822.252,5940.517c87.089-15.181,137.038-72.568,137.038-157.447c0-52.909-16.363-93.638-48.634-120.903
	c-32.662-27.598-81.638-41.666-145.569-41.666H5623.5v586h26v-261h140.662l184.857,261h28.989l1.596-3.211l-188.382-261.886
	L5822.252,5940.517z M5769.269,5921.5H5649.5v-277h108.895c57.668,0,101.502,11.564,130.286,34.506
	c28.898,23.033,43.551,58.034,43.551,104.098c0,43.53-13.302,77.42-39.537,101.029
	C5865.032,5909.031,5823.505,5921.5,5769.269,5921.5z"/>
<g>
	<path d="M13427.307,2081.647c0-25.841,0-38.761,0.587-54.619l-1.175-0.587c-8.809,6.46-17.618,11.158-26.428,16.444l-66.362,38.761
		l-2.937-1.762l1.762-23.492l112.171-62.253h5.285v423.44h-22.903V2081.647z"/>
	<path d="M13546.523,2307.756c0-56.38,31.714-96.316,88.68-111.586c-48.157-14.682-73.41-48.745-73.41-99.253
		c0-62.253,46.396-106.3,116.281-106.3c69.3,0,116.282,44.047,116.282,106.3c0,49.333-25.253,83.983-73.41,99.253
		c56.966,15.27,88.679,55.206,88.679,111.586c0,73.999-49.918,120.983-131.551,120.983
		C13596.442,2428.739,13546.523,2381.755,13546.523,2307.756z M13786.722,2306.581c0-60.491-42.872-99.84-108.647-99.84
		s-108.646,39.349-108.646,99.84c0,62.253,42.284,101.603,108.646,101.603
		C13744.438,2408.184,13786.722,2368.834,13786.722,2306.581z M13771.452,2098.091c0-51.682-38.761-88.094-93.378-88.094
		c-55.204,0-93.965,36.412-93.965,88.094c0,52.856,37.586,86.92,93.965,86.92
		C13733.866,2185.011,13771.452,2150.948,13771.452,2098.091z"/>
	<path d="M13878.331,2291.312c0-49.333,24.079-87.507,62.252-142.713l110.409-160.332l17.03,9.984l1.175,4.111l-96.901,138.602
		l-46.395,61.079l1.174,0.587c21.143-24.079,55.205-40.523,91.028-40.523c71.648,0,123.329,52.856,123.329,130.38
		c0,81.634-54.617,136.252-133.312,136.252C13930.6,2428.739,13878.331,2375.295,13878.331,2291.312z M14117.941,2293.661
		c0-66.952-43.459-110.999-105.71-110.999c-64.601,0-110.409,46.983-110.409,112.173c0,66.952,44.046,113.348,107.473,113.348
		C14073.309,2408.184,14117.941,2360.612,14117.941,2293.661z"/>
	<path d="M14206.607,2307.756c0-56.38,31.714-96.316,88.68-111.586c-48.157-14.682-73.41-48.745-73.41-99.253
		c0-62.253,46.396-106.3,116.281-106.3c69.3,0,116.282,44.047,116.282,106.3c0,49.333-25.253,83.983-73.41,99.253
		c56.966,15.27,88.679,55.206,88.679,111.586c0,73.999-49.918,120.983-131.551,120.983
		C14256.526,2428.739,14206.607,2381.755,14206.607,2307.756z M14446.806,2306.581c0-60.491-42.872-99.84-108.647-99.84
		s-108.646,39.349-108.646,99.84c0,62.253,42.284,101.603,108.646,101.603
		C14404.521,2408.184,14446.806,2368.834,14446.806,2306.581z M14431.536,2098.091c0-51.682-38.761-88.094-93.378-88.094
		c-55.204,0-93.965,36.412-93.965,88.094c0,52.856,37.586,86.92,93.965,86.92
		C14393.95,2185.011,14431.536,2150.948,14431.536,2098.091z"/>
</g>
<g>
	<path d="M13427.307,2690.729c0-25.841,0-38.761,0.587-54.619l-1.175-0.587c-8.809,6.46-17.618,11.158-26.428,16.444l-66.362,38.761
		l-2.937-1.762l1.762-23.492l112.171-62.253h5.285v423.44h-22.903V2690.729z"/>
	<path d="M13624.633,3030.186l-0.587-4.111l96.901-138.602c11.745-15.857,22.316-29.952,46.395-61.079l-1.175-0.587
		c-21.729,24.079-55.791,39.936-91.028,39.936c-71.648,0-123.328-52.856-123.328-129.792c0-82.221,54.029-136.252,134.486-136.252
		c76.934,0,128.615,53.444,128.615,134.491c0,55.206-28.777,96.904-62.252,145.062l-110.409,160.919L13624.633,3030.186z
		 M13791.42,2733.602c0-67.539-44.046-113.348-106.885-113.348c-64.601,0-109.821,46.984-109.821,113.348
		c0,67.539,44.046,112.173,106.885,112.173C13745.612,2845.775,13791.42,2798.204,13791.42,2733.602z"/>
	<path d="M14052.761,2926.822h-219.643v-7.047l233.15-317.14h8.809v302.457h49.332v21.73h-49.332v99.84h-22.316V2926.822z
		 M14052.761,2905.092v-163.855c0-37.587,0-59.317,2.35-90.443h-0.588c-14.682,22.904-25.84,38.762-38.173,55.206l-146.232,199.093
		H14052.761z"/>
	<path d="M14193.117,2818.759c0-136.252,54.616-219.061,142.121-219.061c86.918,0,141.535,82.809,141.535,219.061
		c0,135.666-54.617,219.062-141.535,219.062C14247.733,3037.821,14193.117,2954.425,14193.117,2818.759z M14453.282,2818.172
		c0-121.57-45.809-197.332-118.044-197.332c-72.822,0-118.631,75.761-118.631,197.918c0,120.983,46.396,197.919,118.631,197.919
		C14408.062,3016.678,14453.282,2940.917,14453.282,2818.172z"/>
</g>
</svg>
