<svg xml:space="preserve" viewbox="0 0 1975.967 1000" height="1000px" width="1975.967px" y="0px" x="0px" xmlns:xlink="http://www.w3.org/1999/xlink" xmlns="http://www.w3.org/2000/svg" id="Layer_1">
<g>
	<path d="M76.166,455.074h29.3c21.471,0,32.266,9.608,32.266,27.521c0,16.844-10.677,26.927-29.774,26.927H96.924v29.537H76.166
		V455.074z M104.398,493.27c9.015,0,13.404-3.321,13.404-10.676c0-7.71-4.39-11.032-13.404-11.032h-7.474v21.708H104.398z"/>
	<path d="M222.145,455.074l1.898,17.319h-53.926v15.658h50.367v16.607h-50.367v17.081h53.926l-1.898,17.319h-72.431v-83.985H222.145
		z"/>
	<path d="M231.519,473.579v-18.505h112.715v18.505h-45.979v65.479h-20.64v-65.479H231.519z"/>
	<path d="M426.276,455.074l1.898,17.319h-53.926v15.658h50.367v16.607h-50.367v17.081h53.926l-1.898,17.319h-72.431v-83.985H426.276
		z"/>
	<path d="M513.465,536.923l-0.949,2.136h-21.469l-20.641-31.198h-6.762v31.198h-20.759v-83.985h30.249
		c21.233,0,31.909,9.015,31.909,27.046c0,10.794-5.1,18.505-14.59,22.419L513.465,536.923z M463.644,492.321h8.186
		c9.015,0,13.404-3.203,13.404-10.202c0-7.473-4.39-10.439-13.404-10.439h-8.186V492.321z"/>
	<path d="M553.918,455.074h27.52c20.76,0,30.486,8.185,30.486,22.183c0,8.303-5.338,15.184-13.404,17.556v0.356
		c10.914,2.491,17.557,9.608,17.557,20.047c0,15.539-10.559,23.844-33.57,23.844h-28.588V455.074z M581.082,488.644
		c7.947,0,11.744-3.203,11.744-9.016c0-5.931-3.797-9.015-12.338-9.015h-6.168v18.031H581.082z M581.438,522.926
		c10.439,0,14.709-3.322,14.709-10.083c0-6.524-4.389-10.083-14.115-10.083h-7.711v20.166H581.438z"/>
	<path d="M700.846,455.074l1.898,17.319h-53.926v15.658h50.367v16.607h-50.367v17.081h53.926l-1.898,17.319h-72.43v-83.985H700.846z
		"/>
	<path d="M717.455,455.074h20.404v32.621h51.316v-32.621h20.402v83.985h-20.402v-33.333h-51.316v33.333h-20.404V455.074z"/>
	<path d="M897.006,536.923l-0.949,2.136h-21.469l-20.641-31.198h-6.762v31.198h-20.76v-83.985h30.25
		c21.232,0,31.908,9.015,31.908,27.046c0,10.794-5.1,18.505-14.59,22.419L897.006,536.923z M847.186,492.321h8.186
		c9.014,0,13.404-3.203,13.404-10.202c0-7.473-4.391-10.439-13.404-10.439h-8.186V492.321z"/>
	<path d="M977.15,455.074l1.898,17.319h-53.926v15.658h50.367v16.607h-50.367v17.081h53.926l-1.898,17.319h-72.432v-83.985H977.15z"/>
	<path d="M993.76,455.074h20.166l24.199,31.316c3.914,5.219,7.828,10.557,13.285,18.624h0.236
		c-1.186-8.066-1.305-13.404-1.305-20.996v-28.944h20.285v84.696h-17.082l-26.928-33.807c-4.033-5.22-8.184-10.558-13.641-18.624
		h-0.355c1.186,8.066,1.422,13.404,1.422,20.996v30.724H993.76V455.074z"/>
	<path d="M1081.543,523.993l13.998-9.846l2.135,0.593c4.152,6.406,9.371,9.253,16.014,9.253c6.168,0,10.32-3.321,10.32-7.71
		c0-4.627-2.729-7.355-17.082-13.404c-16.014-6.643-21.826-13.998-21.826-26.216c0-13.404,12.336-23.843,29.656-23.843
		c12.93,0,23.131,5.457,29.535,14.947l-13.877,10.32l-2.137-0.475c-3.203-4.745-7.592-7.592-13.404-7.592
		c-5.574,0-8.658,2.847-8.658,6.643c0,3.677,1.779,5.575,16.725,12.1c16.607,7.236,22.184,14.709,22.184,25.622
		c0,15.303-13.049,26.928-31.316,26.928C1100.049,541.312,1088.896,535.618,1081.543,523.993z"/>
</g>
</svg>
