<svg xml:space="preserve" viewbox="0 0 6720 2584" height="2584px" width="6720px" y="0px" x="0px" xmlns:xlink="http://www.w3.org/1999/xlink" xmlns="http://www.w3.org/2000/svg">
<g id="Layer_1">
	<path d="M135.536,1483.934h223.87c368.894,0,560.38,171.775,560.38,488.572c0,328.062-205.566,508.285-560.38,508.285h-223.87
		V1483.934z M341.103,2455.447c353.405,0,551.932-159.104,551.932-482.941c0-311.164-190.078-463.229-547.708-463.229H160.88v946.17
		H341.103z"/>
	<path d="M1713.894,2180.889h-547.709l-125.311,299.902h-29.568l425.213-1001.08h5.633l428.029,1001.08h-29.568L1713.894,2180.889z
		 M1704.036,2155.545l-149.246-353.404l-114.047-266.111h-2.816c-38.016,88.703-77.439,180.223-112.639,264.703l-147.84,354.812
		H1704.036z"/>
	<path d="M2682.581,2475.158l-2.816,5.633h-25.344l-312.574-439.293h-257.662v439.293h-25.344v-996.857h223.871
		c223.869,0,333.693,99.969,333.693,277.375c0,145.023-84.48,252.029-246.398,275.965L2682.581,2475.158z M2306.647,2016.154
		c194.303,0,283.006-108.414,283.006-254.846c0-163.326-102.783-252.031-311.166-252.031h-194.303v506.877H2306.647z"/>
	<path d="M3375.306,2303.385l428.029-819.451h40.832v996.857h-25.344V1514.91h-2.816l-439.293,839.162h-5.633l-437.885-839.162
		h-2.814v965.881h-25.344v-996.857h42.238l425.213,819.451H3375.306z"/>
	<path d="M4050.991,1509.277v-25.344H5614.12v25.344h-768.893v971.514h-25.344v-971.514H4050.991z"/>
	<path d="M5816.071,1483.934h223.869c368.895,0,560.381,171.775,560.381,488.572c0,328.062-205.566,508.285-560.381,508.285
		h-223.869V1483.934z M6021.638,2455.447c353.404,0,551.932-159.104,551.932-482.941c0-311.164-190.078-463.229-547.709-463.229
		h-184.445v946.17H6021.638z"/>
	<path d="M1569.339,982.616l428.029-819.451h40.832v996.857h-25.344V194.141h-2.816l-439.293,839.162h-5.631l-437.885-839.162
		h-2.816v965.881h-25.344V163.165h42.239l425.213,819.451H1569.339z"/>
	<path d="M2219.565,188.508v-25.344h1563.129v25.344h-768.893v971.514h-25.344V188.508H2219.565z"/>
	<path d="M4592.265,1154.389l-2.816,5.633h-25.344L4251.53,720.729h-257.662v439.293h-25.344V163.165h223.871
		c223.869,0,333.693,99.967,333.693,277.375c0,145.021-84.48,252.029-246.398,275.965L4592.265,1154.389z M4216.331,695.385
		c194.303,0,283.006-108.416,283.006-254.846c0-163.328-102.783-252.031-311.166-252.031h-194.303v506.877H4216.331z"/>
	<path d="M4840.065,163.165v996.857h-25.344V163.165H4840.065z"/>
	<path d="M5034.427,188.508v-25.344h763.129v25.344h-368.893v971.514h-25.344V188.508H5034.427z"/>
	<path d="M6208.589,739.032l-349.182-575.867h28.16l178.814,298.494c49.279,83.072,101.375,166.143,153.471,249.215h2.816
		c50.688-83.072,102.783-166.143,152.062-249.215l178.814-298.494h28.16l-347.773,575.867v420.99h-25.344V739.032z"/>
	<path d="M2522.649,572h-15.851l-250.715,588h28.149l71.099-172h317.937l71.935,172h28.988L2522.649,572z M2365.22,965
		l86.322-207.451c12.193-29.688,24.889-59.652,37.167-88.744c7.052-16.709,14.345-33.991,21.389-50.836l0.822-1.969h5.934
		l0.822,2.028c8.44,20.183,17.233,40.848,25.737,60.802c11.005,25.825,22.386,52.308,33.656,79.543L2663.396,965H2365.22z"/>
	<path d="M5323.649,1893h-15.852l-250.715,588h28.148l71.1-172h317.937l71.935,172h28.988L5323.649,1893z M5166.22,2286
		l86.322-207.566c12.189-29.68,24.882-59.692,37.156-88.775c7.055-16.719,14.351-33.923,21.398-50.775l0.822-1.883h5.933
		l0.822,1.913c8.436,20.17,17.223,40.765,25.722,60.706c11.011,25.837,22.396,52.42,33.672,79.669L5464.396,2286H5166.22z"/>
	<path d="M4462.771,2242.078c-24.08-28.11-64.156-54.463-129.943-85.447c-65.961-31.147-99.975-51.367-121.317-72.117
		c-22.077-21.463-31.082-44.302-31.082-78.83c0-29.337,12.997-56.314,36.598-75.963c23.979-19.963,57.568-30.958,94.581-30.958
		c32.256,0,59.17,6.857,82.28,20.962c22.105,13.492,40.224,33.327,55.355,60.609l3.949,0.987l19.805-13.439
		c-17.083-30.039-38.849-52.967-64.728-68.179c-26.886-15.803-59.127-23.815-95.826-23.815c-46.582,0-86.51,12.829-115.466,37.102
		c-28.527,23.912-43.606,56.544-43.606,94.367c0,38.224,10.128,66.454,32.84,91.535c23.017,25.419,59.773,48.657,119.18,75.347
		c65.538,29.557,105.541,54.024,129.712,79.336c23.56,24.672,33.612,51.1,33.612,88.365c0,34.327-14.294,66.319-40.248,90.083
		c-26.586,24.343-63.334,37.749-103.477,37.749c-75.616,0-127.422-34.982-167.803-113.37l-3.88-0.97l-20.754,14.312
		c22.501,43.408,49.186,74.278,81.515,94.316c31.035,19.236,67.592,28.587,111.759,28.587c47.272,0,90.518-15.345,121.771-43.207
		c31.066-27.696,48.176-65.875,48.176-107.501C4495.772,2298.947,4485.902,2269.082,4462.771,2242.078z"/>
	<path d="M3638.143,1092.956c-16.204,18.754-36.842,32.983-61.34,42.291c-24.309,9.236-53.207,13.919-85.893,13.919
		c-65.191,0-115.003-18.872-147.569-56.09C3310.763,1055.843,3294,999.06,3294,924.304V572h-25v354.813
		c0,82.138,18.632,144.493,55.275,185.334c18.288,20.382,41.536,35.892,69.045,46.096c27.676,10.266,60.513,15.471,97.576,15.471
		c72.76,0,128.639-20.926,165.793-62.198c37.267-41.396,56.311-103.539,56.311-184.703V572h-27v351.468
		c0,37.606-3.773,70.849-11.702,98.804C3666.298,1050.477,3654.297,1074.258,3638.143,1092.956z"/>
</g>
<g id="Layer_2">
</g>
</svg>
