<svg xml:space="preserve" viewbox="0 0 7118.849 2647.059" height="2647.059px" width="7118.849px" y="0px" x="0px" xmlns:xlink="http://www.w3.org/1999/xlink" xmlns="http://www.w3.org/2000/svg" id="Layer_1">
<g>
	<path d="M136.059,1576.029h212.605c216.832,0,333.693,84.479,333.693,240.766
		c0,119.68-83.07,208.383-218.238,236.543v2.814c173.184,22.529,266.111,111.232,266.111,249.215
		c0,183.039-121.088,267.52-382.976,267.52H136.059V1576.029L136.059,1576.029z M376.826,2044.891
		c159.104,0,278.783-95.744,278.783-226.688c0-137.982-107.008-216.83-299.901-216.83H161.404v443.518H376.826z M352.889,2547.543
		c239.357,0,350.59-76.031,350.59-242.178c0-146.43-121.088-235.133-319.612-235.133H161.404v477.311H352.889z" fill="#FFFFFF"/>
	<path d="M1540.09,1576.029l4.226,25.344H1037.44v447.74h473.083v25.344H1037.44v473.086h506.876l-4.226,25.344
		h-527.996v-996.857H1540.09L1540.09,1576.029z" fill="#FFFFFF"/>
	<path d="M1838.569,1576.029h25.344v478.717h684.283v-478.717h25.344v996.857h-25.344V2080.09h-684.283v492.797
		h-25.344V1576.029z" fill="#FFFFFF"/>
	<path d="M3560.534,2567.254l-2.814,5.633h-25.344l-312.574-439.293h-257.662v439.293h-25.344v-996.857h223.871
		c223.869,0,333.693,99.967,333.693,277.373c0,145.023-84.48,252.031-246.398,275.967L3560.534,2567.254z M3184.602,2108.25
		c194.303,0,283.006-108.416,283.006-254.85c0-163.324-102.783-252.027-311.166-252.027h-194.303v506.877H3184.602z" fill="#FFFFFF"/>
	<path d="M4980.989,1576.029l4.225,25.344H3813.878v447.74h1137.543v25.344H3813.878v473.086h1171.336l-4.225,25.344
		H3788.534v-996.857H4980.989L4980.989,1576.029z" fill="#FFFFFF"/>
	<path d="M5299.466,1576.029h40.832l547.707,715.26l174.592,228.094h4.223v-253.438v-689.916h25.344v1016.568h-5.631
		l-582.908-760.314l-174.59-228.094h-4.225v253.438v715.26h-25.344V1576.029z" fill="#FFFFFF"/>
	<path d="M6342.495,2379.992l21.119-14.082l5.633,1.41c71.807,146.43,167.551,205.566,299.902,205.566
		c150.654,0,256.254-102.785,256.254-225.279c0-125.312-61.951-194.303-294.27-302.717
		c-187.264-87.297-250.623-152.062-250.623-277.375c0-129.535,111.232-218.238,263.295-218.238
		c122.494,0,212.605,52.096,273.15,166.143l-19.713,12.672l-5.633-1.408c-52.096-102.783-133.758-152.062-249.213-152.062
		c-136.576,0-235.135,84.48-235.135,190.078c0,119.68,56.32,168.959,270.334,271.742
		c212.607,101.375,274.559,173.184,274.559,311.166c0,146.432-122.496,250.623-281.598,250.623
		C6529.759,2598.23,6421.343,2539.094,6342.495,2379.992z" fill="#FFFFFF"/>
</g>
<g>
	<path d="M136.059,223.891H358.52c225.278,0,335.104,99.967,335.104,284.414
		c0,180.223-111.231,287.229-333.694,287.229H161.404v425.215H136.06L136.059,223.891L136.059,223.891z M345.847,770.19
		c222.464,0,321.023-91.52,321.023-261.885c0-170.367-102.783-259.07-312.574-259.07H161.402V770.19H345.847z" fill="#FFFFFF"/>
	<path d="M920.992,249.235v-25.344h5213.13v25.344H3545.228v971.515h-25.344V249.235H920.992z" fill="#FFFFFF"/>
	<path d="M7018.993,1215.116l-2.814,5.633h-25.344l-312.574-439.293h-257.662v439.293h-25.344V223.891h223.871
		c223.869,0,333.693,99.968,333.693,277.373c0,145.023-84.48,252.031-246.398,275.968L7018.993,1215.116z M6643.062,756.112
		c194.305,0,283.006-108.416,283.006-254.849c0-163.325-102.783-252.028-311.166-252.028h-194.303v506.877H6643.062z" fill="#FFFFFF"/>
	<polygon points="946.535,932.297 3255.535,932.297 3255.535,908.297 946.535,908.297 946.535,658.297 
		3275.857,658.297 3272.564,634.297 920.535,634.297 920.535,1220.297 3272.564,1220.297 3275.857,1197.297 946.535,1197.297 	" fill="#FFFFFF"/>
	<polygon points="3814.534,932.297 6113.534,932.297 6113.534,908.297 3814.534,908.297 3814.534,658.297 
		6134.122,658.297 6130.829,634.297 3788.534,634.297 3788.534,1220.297 6130.829,1220.297 6134.122,1197.297 3814.534,1197.297 	
		" fill="#FFFFFF"/>
</g>
</svg>
