<svg xmlns:xlink="http://www.w3.org/1999/xlink" xmlns="http://www.w3.org/2000/svg" xml:space="preserve" style="box-shadow: none; border-radius: 0px; opacity: 1;" viewbox="-411.8 380 1049.6 241.3" y="0px" x="0px" id="Layer_1" width="" height="" viewBox="-390.8999938964844 429.8999938964844 790.9000244140625 141.39999389648438" preserveAspectRatio="xMidYMid meet" fill="#ffffff" fill-opacity="1">
<path d="M-132,471.4c-19.9,0-35.3,14.6-35.3,35.9c0,21.2,16.1,35.9,35.3,35.9c14.6,0,25.3-7.4,31.5-17.6l-12.9-5.8  c-2.3,5.8-8.6,10.2-17.9,10.2c-13,0-20.7-8.8-20.7-19h52.2l1.5-4.4C-98.2,485.2-113.5,471.4-132,471.4z M-151.2,498  c2.3-7.6,8.5-13.5,19.2-13.5c9.2,0,16.9,5.9,17.7,13.5H-151.2z M398.5,503.6h-26.7v12.3h12.6c-0.7,9.1-9,14.1-18.1,14.1  c-15.2,0-21.8-11.1-21.8-22.4c0-11.4,6.6-23,22-23c8.6,0,15.1,4.5,18.4,10.6l12.5-6.2c-6.2-11.4-16.9-17.6-30.9-17.7  c-21.6,0.1-37.1,15.5-37.1,36.3c0,21.7,16.9,35.6,35.7,35.6c18.9,0,34.9-13.9,34.9-35.2C400,508,398.5,503.6,398.5,503.6z   M-193.7,480.8l-0.8-0.7l-1.5-7.3h-13.8v68.9h15.3v-40.2c0.3-8.5,6.1-15.5,18-15.5h8.1v-13.2c-3.1-1.4-4.6-1.4-7.6-1.4  C-182.4,471.4-188.3,474.1-193.7,480.8z M100.7,520.3l-18.3-47.5H66.6l26.5,66.7L80.9,571h14.4l38.3-98.2h-14.4L100.7,520.3z   M46.6,478.7l-0.7,0.7l-0.8-0.7c-4.6-4.4-12.4-7.3-19.9-7.3c-19.9,0-36.8,14.6-36.8,35.9c0,21.2,16.9,35.9,36.8,35.9  c7.7,0,15.4-3,19.9-7.4l0.8-0.7l0.7,0.7l1.5,5.9h13.8V430.3H46.6V478.7z M25.9,529.9c-14.6,0-22.4-10.2-22.4-22.7  s7.8-22.8,22.4-22.8c13,0,22.2,10.3,22.2,22.8S39,529.9,25.9,529.9z M-35.2,478.7l-0.7,0.7l-0.7-0.7c-4.7-4.4-12.3-7.3-19.9-7.3  c-19.9,0-36.8,14.6-36.8,35.9c0,21.2,16.9,35.9,36.8,35.9c7.6,0,15.3-3,19.9-7.4l0.7-0.7l0.7,0.7l1.6,5.9h13.8v-68.9h-13.8  L-35.2,478.7z M-55.9,529.9c-14.5,0-22.4-10.2-22.4-22.7s7.9-22.8,22.4-22.8c13,0,22.3,10.3,22.3,22.8S-42.9,529.9-55.9,529.9z   M216.7,471.4c-6.1,0-13.8,2.9-17.6,7.3l-3.8,4.4c-4-7.2-12-11.7-23-11.7c-6.1,0-13.8,2.9-16.9,7.3l-0.7,0.7l-0.8-0.7l-1.5-5.9  h-13.8v68.9h15.3V500c0.3-8.5,7.9-15.5,16.9-15.5c7.7,0,12.3,4.4,12.3,13.2v44h15.4V500c0.3-8.5,7.8-15.5,16.9-15.5  c7.6,0,12.3,4.4,12.3,13.2v44H243v-45.5C242.8,481.6,233.7,471.4,216.7,471.4z M307.8,478.7l-0.7,0.7l-0.8-0.7  c-4.6-4.4-12.2-7.3-19.9-7.3c-19.9,0-36.8,14.6-36.8,35.9c0,21.2,16.9,35.9,36.8,35.9c7.7,0,15.4-3,19.9-7.4l0.8-0.7l0.7,0.7  l1.5,5.9h13.8v-68.9h-13.8L307.8,478.7z M287.1,529.9c-14.5,0-22.4-10.2-22.4-22.7s7.8-22.8,22.4-22.8c13,0,22.3,10.3,22.3,22.8  S300.1,529.9,287.1,529.9z"/>
<g>
	<path d="M-375.3,527.7v11.1h-15.6V429.9h16.2v32.2c0,7.4,0,14.9-0.1,21.5c5.8-9.1,14.6-14.1,24.7-14.1c17.5,0,29.9,13.8,29.9,35.5   c0,21.5-13.1,36.5-30.9,36.5C-360.9,541.7-370.3,536.5-375.3,527.7z M-336.9,505.3c0-13.5-7-21.5-18.4-21.5   c-11.6,0-19.9,9.2-19.9,22c0,13.1,7.9,21.8,19.6,21.8C-344,527.6-336.9,519.1-336.9,505.3z"/>
	<path d="M-290.5,533.1l-27.2-60.6h18.7l16.6,45.3h0.3l17.8-45.3h18.1l-45,98.8h-17.8L-290.5,533.1z"/>
</g>
</svg>