<svg xml:space="preserve" viewbox="0 0 7200 2500" height="2500px" width="7200px" y="0px" x="0px" xmlns:xlink="http://www.w3.org/1999/xlink" xmlns="http://www.w3.org/2000/svg" id="Layer_1">
<g>
	<path d="M110.389,1399.063h223.869c368.895,0,560.381,171.775,560.381,488.572
		c0,328.062-205.566,508.285-560.381,508.285H110.389V1399.063z M315.955,2370.577c353.404,0,551.932-159.104,551.932-482.941
		c0-311.166-190.078-463.229-547.707-463.229H135.732v946.17H315.955z" fill="#FFFFFF"/>
	<path d="M1695.771,1399.063l4.227,25.345h-506.879v447.74h473.086v25.345h-473.086v473.086h506.879l-4.227,25.344
		h-527.996v-996.857h527.996V1399.063z" fill="#FFFFFF"/>
	<path d="M1901.32,2203.026l21.119-14.082l5.633,1.41c71.807,146.431,167.551,205.566,299.902,205.566
		c150.654,0,256.254-102.785,256.254-225.279c0-125.311-61.951-194.303-294.27-302.717
		c-187.264-87.297-250.623-152.062-250.623-277.375c0-129.535,111.232-218.237,263.295-218.237
		c122.494,0,212.605,52.097,273.15,166.144l-19.713,12.672l-5.633-1.408c-52.096-102.783-133.758-152.062-249.213-152.062
		c-136.576,0-235.135,84.48-235.135,190.078c0,119.68,56.32,168.959,270.334,271.742
		c212.607,101.375,274.559,173.184,274.559,311.166c0,146.432-122.496,250.623-281.598,250.623
		C2088.584,2421.265,1980.168,2362.128,1901.32,2203.026z" fill="#FFFFFF"/>
	<path d="M2810.643,1399.063v996.857h-25.344v-996.857H2810.643z" fill="#FFFFFF"/>
	<path d="M3082.588,1897.491c0-299.902,216.83-525.181,506.875-525.181c198.527,0,347.773,88.703,451.965,271.742
		l-16.896,12.672l-5.631-1.408c-91.52-164.733-232.318-257.662-429.438-257.662c-273.148,0-480.123,216.83-480.123,499.836
		s211.197,499.836,478.715,499.836c191.488,0,347.773-116.862,439.293-284.414v-187.263h-357.629v-25.344h381.564v495.613h-25.344
		v-70.4c0-46.463,0-118.271,1.408-164.734l-1.408-1.408c-101.375,159.103-250.621,263.293-436.477,263.293
		C3302.234,2422.671,3082.588,2198.802,3082.588,1897.491z" fill="#FFFFFF"/>
	<path d="M4387.777,1399.063h40.832l547.707,715.261l174.592,228.094h4.223v-253.438v-689.916h25.344v1016.568
		h-5.631l-582.908-760.314l-174.59-228.094h-4.225v253.438v715.261h-25.344V1399.063z" fill="#FFFFFF"/>
	<path d="M6071.729,1399.063l4.225,25.345h-506.877v447.74h473.084v25.345h-473.084v473.086h506.877l-4.225,25.344
		h-527.996v-996.857h527.996V1399.063z" fill="#FFFFFF"/>
	<path d="M6993.945,2390.288l-2.814,5.633h-25.344l-312.574-439.293h-257.662v439.293h-25.344v-996.857h223.871
		c223.869,0,333.693,99.967,333.693,277.373c0,145.023-84.48,252.031-246.398,275.967L6993.945,2390.288z M6618.014,1931.284
		c194.303,0,283.006-108.416,283.006-254.849c0-163.326-102.783-252.028-311.166-252.028h-194.303v506.877H6618.014z" fill="#FFFFFF"/>
</g>
<g>
	<path d="M110.389,129.688v-25.344h1563.13v25.344H904.625v971.515h-25.344V129.689L110.389,129.688L110.389,129.688
		z" fill="#FFFFFF"/>
	<path d="M2458.917,104.345l4.225,25.344h-506.877v447.74h473.084v25.344h-473.084v473.086h506.877l-4.225,25.345
		h-527.996V104.347h527.996V104.345z" fill="#FFFFFF"/>
	<path d="M4206.521,104.345l2.816,25.344H3129.212v447.74h1046.333v25.344H3129.212v498.431h-25.344V104.347
		h1102.653V104.345z" fill="#FFFFFF"/>
	<path d="M4485.283,104.345v996.857h-25.344V104.345H4485.283L4485.283,104.345z" fill="#FFFFFF"/>
	<path d="M5472.262,1095.569l-2.814,5.633h-25.344l-312.574-439.293h-257.662v439.293h-25.344V104.345h223.869
		c223.871,0,333.695,99.967,333.695,277.373c0,145.023-84.48,252.031-246.398,275.967L5472.262,1095.569z M5096.33,636.565
		c194.303,0,283.006-108.416,283.006-254.849c0-163.325-102.783-252.028-311.166-252.028h-194.303v506.877H5096.33z" fill="#FFFFFF"/>
	<path d="M5601.791,908.308l21.119-14.082l5.633,1.41c71.807,146.431,167.551,205.566,299.902,205.566
		c150.654,0,256.254-102.785,256.254-225.279c0-125.311-61.951-194.303-294.27-302.717
		c-187.264-87.297-250.623-152.062-250.623-277.375c0-129.535,111.232-218.238,263.295-218.238
		c122.494,0,212.605,52.097,273.15,166.144l-19.713,12.672l-5.633-1.407c-52.096-102.783-133.758-152.062-249.213-152.062
		c-136.576,0-235.135,84.48-235.135,190.078c0,119.68,56.32,168.959,270.334,271.742
		c212.607,101.375,274.559,173.184,274.559,311.166c0,146.432-122.496,250.623-281.598,250.623
		C5789.055,1126.546,5680.639,1067.409,5601.791,908.308z" fill="#FFFFFF"/>
	<path d="M6326.891,129.688v-25.344h763.131v25.344h-368.895v971.515h-25.344V129.689L6326.891,129.688
		L6326.891,129.688z" fill="#FFFFFF"/>
	<polygon points="1260.52,514.751 1233.52,514.751 1233.52,1100.751 1260.52,1100.751 1260.52,815.751 
		1647.519,815.751 1647.519,1100.751 1673.519,1100.751 1673.519,514.751 1647.519,514.751 1647.519,791.751 1260.52,791.751 	" fill="#FFFFFF"/>
</g>
</svg>
