<svg xml:space="preserve" viewbox="0 0 7920 2608" height="2608px" width="7920px" y="0px" x="0px" xmlns:xlink="http://www.w3.org/1999/xlink" xmlns="http://www.w3.org/2000/svg" id="Layer_1">
<path d="M2764.209,942.329l428.029-819.451h40.832v996.857h-25.344V153.854h-2.816l-439.293,839.162h-5.631l-437.885-839.162h-2.816
	v965.881h-25.344V122.878h42.239l425.213,819.451H2764.209z"/>
<path d="M3415.436,148.222v-25.344h1563.128v25.344h-768.893v971.514h-25.344V148.222H3415.436z"/>
<path d="M5787.135,1114.103l-2.816,5.633h-25.344L5446.4,680.442h-257.662v439.293h-25.344V122.878h223.871
	c223.869,0,333.693,99.967,333.693,277.375c0,145.021-84.48,252.029-246.398,275.965L5787.135,1114.103z M5411.201,655.099
	c194.303,0,283.006-108.416,283.006-254.846c0-163.328-102.783-252.031-311.166-252.031h-194.303v506.877H5411.201z"/>
<path d="M6034.936,122.878v996.857h-25.344V122.878H6034.936z"/>
<path d="M6243.297,148.222v-25.344h763.129v25.344h-368.893v971.514h-25.344V148.222H6243.297z"/>
<path d="M7403.459,698.745l-349.182-575.867h28.16l178.814,298.494c49.279,83.072,101.375,166.143,153.471,249.215h2.816
	c50.688-83.072,102.783-166.143,152.062-249.215l178.814-298.494h28.16l-347.773,575.867v420.99h-25.344V698.745z"/>
<path d="M221.942,1442.878h223.87c368.894,0,560.38,171.775,560.38,488.572c0,328.062-205.566,508.285-560.38,508.285h-223.87
	V1442.878z M427.508,2414.392c353.405,0,551.932-159.104,551.932-482.941c0-311.166-190.078-463.229-547.708-463.229H247.286v946.17
	H427.508z"/>
<path d="M1265.249,2041.274v-598.396h25.344v595.58c0,267.518,118.271,402.686,346.365,402.686
	c230.91,0,346.365-135.168,346.365-402.686v-595.58h25.344v598.396c0,284.414-125.311,425.213-371.709,425.213
	S1265.249,2327.097,1265.249,2041.274z"/>
<path d="M2264.905,2246.841l21.119-14.08l5.633,1.408c71.807,146.43,167.551,205.566,299.9,205.566
	c150.656,0,256.256-102.783,256.256-225.279c0-125.311-61.953-194.303-294.271-302.717
	c-187.262-87.295-250.621-152.062-250.621-277.375c0-129.535,111.23-218.238,263.293-218.238
	c122.496,0,212.607,52.096,273.15,166.143l-19.711,12.672l-5.633-1.406c-52.096-102.785-133.758-152.064-249.213-152.064
	c-136.576,0-235.135,84.48-235.135,190.08c0,119.678,56.318,168.957,270.334,271.74
	c212.605,101.377,274.559,173.184,274.559,311.166c0,146.432-122.496,250.623-281.6,250.623
	C2452.167,2465.079,2343.752,2405.942,2264.905,2246.841z"/>
<path d="M3051.956,2246.841l21.119-14.08l5.633,1.408c71.807,146.43,167.551,205.566,299.9,205.566
	c150.656,0,256.256-102.783,256.256-225.279c0-125.311-61.953-194.303-294.271-302.717
	c-187.262-87.295-250.621-152.062-250.621-277.375c0-129.535,111.23-218.238,263.293-218.238
	c122.496,0,212.607,52.096,273.15,166.143l-19.711,12.672l-5.633-1.406c-52.096-102.785-133.758-152.064-249.213-152.064
	c-136.576,0-235.135,84.48-235.135,190.08c0,119.678,56.318,168.957,270.334,271.74
	c212.605,101.377,274.559,173.184,274.559,311.166c0,146.432-122.496,250.623-281.6,250.623
	C3239.217,2465.079,3130.803,2405.942,3051.956,2246.841z"/>
<path d="M4459.93,1442.878l4.223,25.344h-506.875v447.74h473.083v25.344h-473.083v473.086h506.875l-4.223,25.344h-527.996v-996.857
	H4459.93z"/>
<path d="M4783.752,1442.878v971.514h1404.061l-4.225,25.344h-1425.18v-996.857H4783.752z"/>
<path d="M7049.178,2434.103l-2.816,5.633h-25.344l-312.574-439.293h-257.662v439.293h-25.344v-996.857h223.871
	c223.869,0,333.693,99.967,333.693,277.375c0,145.021-84.48,252.029-246.398,275.965L7049.178,2434.103z M6673.244,1975.099
	c194.303,0,283.006-108.416,283.006-254.846c0-163.328-102.783-252.031-311.166-252.031h-194.303v506.877H6673.244z"/>
<path d="M7774.287,1442.878l2.816,25.344h-480.125v447.74h446.332v25.344h-446.332v498.43h-25.344v-996.857H7774.287z"/>
<path d="M3725.52,532h-15.851l-250.715,588h28.149l71.099-172h317.937l71.935,172h28.988L3725.52,532z M3568.091,925l86.322-207.726
	c12.193-29.688,24.889-59.791,37.167-88.882c7.052-16.709,14.345-33.785,21.389-50.629l0.822-1.763h5.934l0.822,1.752
	c8.44,20.184,17.233,40.71,25.737,60.666c11.005,25.824,22.386,52.515,33.656,79.75L3866.267,925H3568.091z"/>
<path d="M5402.229,1516.726c-56.104-49.012-139.683-73.726-248.414-73.726H5016v586h137.815c52.343,0,99.807-6.87,141.073-19.961
	c40.844-12.957,75.895-32.44,104.178-57.68c28.338-25.286,50.094-56.719,64.663-93.309c14.801-37.17,22.305-79.988,22.305-127.342
	C5486.034,1637.274,5457.838,1565.307,5402.229,1516.726z M5458.141,1729.774c0,91.329-27.219,160.857-80.9,206.642
	c-52.576,44.841-131.405,67.584-234.299,67.584H5042v-537h102.615c51.857,0,97.78,5.496,136.492,16.064
	c39.123,10.68,72.158,27.096,98.188,48.655c26.207,21.707,46.119,49.392,59.184,82.217
	C5451.525,1646.717,5458.141,1685.713,5458.141,1729.774z"/>
<path d="M6127.964,1516.298c-27.327-28.274-59.98-50.325-97.054-65.54c-38.687-15.876-81.349-23.926-126.803-23.926
	s-88.116,8.05-126.802,23.926c-37.074,15.215-69.728,37.266-97.054,65.54c-54.237,56.117-84.106,134.011-84.106,219.332
	c0,85.326,30.2,163.328,85.038,219.637c27.445,28.182,60.141,50.169,97.179,65.353c38.539,15.798,80.846,23.809,125.745,23.809
	s87.206-8.011,125.745-23.809c37.038-15.184,69.733-37.171,97.179-65.353c54.838-56.309,85.038-134.311,85.038-219.637
	C6212.069,1650.309,6182.2,1572.415,6127.964,1516.298z M6106.741,1937.033c-51.552,53.424-123.515,82.846-202.634,82.846
	s-151.082-29.422-202.634-82.846c-50.473-52.307-78.27-123.833-78.27-201.403c0-78.288,27.687-150.038,77.958-202.033
	c25.129-25.99,55.01-46.274,88.812-60.29c35.089-14.55,73.489-21.927,114.134-21.927s79.045,7.377,114.134,21.927
	c33.802,14.016,63.683,34.3,88.812,60.29c50.271,51.995,77.958,123.745,77.958,202.033
	C6185.011,1813.2,6157.214,1884.727,6106.741,1937.033z"/>
<path d="M4841.244,1052.669c-16.204,18.754-36.842,32.983-61.34,42.291c-24.309,9.236-53.207,13.919-85.893,13.919
	c-65.191,0-114.554-18.872-147.12-56.09c-32.578-37.232-48.892-94.015-48.892-168.771V532h-26v354.527
	c0,82.138,18.683,144.493,55.326,185.334c18.288,20.382,41.561,35.892,69.07,46.096c27.676,10.266,60.525,15.471,97.589,15.471
	c72.76,0,128.595-20.926,165.749-62.198C4897,1029.834,4916,967.691,4916,886.527V532h-26v351.182
	c0,37.606-4.223,70.849-12.151,98.804C4869.849,1010.19,4857.398,1033.972,4841.244,1052.669z"/>
</svg>
