<svg xml:space="preserve" viewbox="0 0 6662.666 2711.922" height="2711.922px" width="6662.666px" y="0px" x="0px" xmlns:xlink="http://www.w3.org/1999/xlink" xmlns="http://www.w3.org/2000/svg" id="Layer_1">
<path d="M3157.407,786.934l-349.182-575.867h28.16L3015.2,509.559c49.28,83.072,101.376,166.145,153.471,249.215h2.816
	c50.688-83.07,102.783-166.143,152.062-249.215l178.815-298.492h28.159l-347.773,575.867v420.988h-25.344V786.934z"/>
<path d="M3645.978,709.495c0-294.27,202.75-525.18,520.955-525.18c318.207,0,520.957,230.91,520.957,525.18
	c0,295.678-206.975,525.18-520.957,525.18C3852.952,1234.674,3645.978,1005.172,3645.978,709.495z M4661.138,709.495
	c0-280.189-199.936-499.836-494.205-499.836s-494.204,219.646-494.204,499.836c0,277.373,201.343,499.836,494.204,499.836
	S4661.138,986.868,4661.138,709.495z"/>
<path d="M4885.247,236.411v-25.344h1563.131v25.344h-768.893v971.512h-25.344V236.411H4885.247z"/>
<path d="M192.737,1531.067h25.344v278.715h884.283v-278.715h25.344v996.855h-25.344v-692.797H218.081v692.797h-25.344V1531.067z"/>
<path d="M1967.177,2350.516l428.029-819.449h40.832v996.855h-25.344v-965.881h-2.816l-439.293,839.162h-5.633l-437.885-839.162
	h-2.814v965.881h-25.344v-996.855h42.238l425.213,819.449H1967.177z"/>
<path d="M2786.278,1531.067h212.607c216.83,0,333.693,84.479,333.693,240.766c0,119.68-83.072,208.383-218.238,236.543v2.814
	c173.182,22.529,266.109,111.232,266.109,249.215c0,183.037-121.088,267.518-382.973,267.518h-211.199V1531.067z M3027.044,1999.926
	c159.104,0,278.783-95.742,278.783-226.688c0-137.98-107.008-216.828-299.902-216.828h-194.303v443.516H3027.044z
	 M3003.108,2502.579c239.359,0,350.59-76.031,350.59-242.174c0-146.432-121.088-235.135-319.613-235.135h-222.463v477.309H3003.108z
	"/>
<path d="M3636.235,2129.461v-598.395h25.344v595.578c0,267.52,118.271,402.686,346.365,402.686
	c230.91,0,346.365-135.166,346.365-402.686v-595.578h25.344v598.395c0,284.414-125.311,425.213-371.709,425.213
	S3636.235,2415.284,3636.235,2129.461z"/>
<path d="M5333.56,2522.29l-2.816,5.633h-25.344l-312.574-439.293h-257.662v439.293h-25.344v-996.855h223.871
	c223.869,0,333.693,99.965,333.693,277.373c0,145.021-84.48,252.029-246.398,275.967L5333.56,2522.29z M4957.626,2063.286
	c194.303,0,283.006-108.414,283.006-254.846c0-163.326-102.783-252.029-311.166-252.029h-194.303v506.875H4957.626z"/>
<path d="M5479.72,2029.493c0-299.9,216.832-525.18,506.877-525.18c198.527,0,347.773,88.703,451.965,271.742l-16.896,12.672
	l-5.631-1.406c-91.52-164.734-232.318-257.664-429.438-257.664c-273.15,0-480.125,216.832-480.125,499.836
	c0,283.008,211.199,499.838,478.717,499.838c191.486,0,347.773-116.863,439.293-284.414v-187.264h-357.629v-25.344h381.564v495.613
	h-25.344v-70.398c0-46.465,0-118.273,1.408-164.734l-1.408-1.41c-101.375,159.104-250.621,263.295-436.477,263.295
	C5699.366,2554.674,5479.72,2330.805,5479.72,2029.493z"/>
<polygon points="6035.797,621.845 6009.797,621.845 6009.797,1207.845 6035.797,1207.845 6035.797,922.845 6423.797,922.845 
	6423.797,1207.845 6448.797,1207.845 6448.797,621.845 6423.797,621.845 6423.797,898.845 6035.797,898.845 "/>
<path d="M666.858,1939.845h-15.851l-250.715,588h28.149l71.099-172h317.937l71.935,172H918.4L666.858,1939.845z M509.429,2333.845
	l86.322-207.924c12.194-29.689,24.89-59.891,37.168-88.983c7.052-16.708,14.343-34.135,21.387-50.978l0.822-2.115h5.934l0.822,2.057
	c8.439,20.18,17.231,40.855,25.734,60.807c11.006,25.828,22.388,52.793,33.659,80.031l86.329,207.105H509.429z"/>
<path d="M5253.685,1133.856c-16.204,18.754-36.842,32.983-61.34,42.291c-24.308,9.236-53.206,13.919-85.894,13.919
	c-65.19,0-114.874-18.872-147.44-56.09c-32.578-37.232-49.214-94.015-49.214-168.771v-352.36h-25v354.869
	c0,82.138,18.504,144.493,55.148,185.334c18.288,20.382,41.472,35.892,68.981,46.096c27.675,10.266,60.48,15.471,97.544,15.471
	c72.76,0,128.25-20.926,165.404-62.198c37.267-41.396,55.922-103.539,55.922-184.703V612.845h-26v351.523
	c0,37.606-3.9,70.849-11.83,98.804C5281.967,1091.377,5269.84,1115.159,5253.685,1133.856z"/>
</svg>
