<svg xmlns:xlink="http://www.w3.org/1999/xlink" xmlns="http://www.w3.org/2000/svg" xml:space="preserve" viewbox="0 0 800 240.887" height="240.887px" width="800px" y="0px" x="0px" id="Layer_1" style="box-shadow: none; border-radius: 0px; opacity: 1;" viewBox="-0.08400052785873413 -0.6379997730255127 800.2186889648438 241.68402099609375" preserveAspectRatio="xMidYMid meet" fill="#ffffff" fill-opacity="1">
<g id="g3">
	<path d="M117.62,104.087c0.967-0.804,2.101-1.05,3.408,0c0.228,0.215,0.419,0.472,0.547,0.756l0,0   l20.633,45.738l0,0c0.812,2.037,0.852,4.351-0.72,6.739c-1.724,2.363-3.891,3.064-6.055,3.049l0,0H99.958l0,0   c-0.685,0-1.367-0.159-1.998-0.426c-0.63-0.269-1.211-0.66-1.695-1.137c-1.523-1.586-1.998-3.6-1.249-5.705l0,0l22.055-48.262l0,0   C117.202,104.557,117.392,104.302,117.62,104.087L117.62,104.087z M32.26,204.266L32.26,204.266L32.26,204.266   c-0.53,0.943-1.173,1.828-1.906,2.631c-1.622,1.746-3.453,2.939-5.328,3.642l0,0L8.9,216.342l0,0   c-1.558,0.561-3.019,1.403-4.274,2.48c-1.253,1.086-2.305,2.404-3.069,3.865c-0.762,1.463-1.235,3.074-1.438,4.428   c-0.203,1.361-0.132,2.455,0.11,3.508c0.242,1.061,0.662,2.07,1.236,2.99c0.576,0.91,1.307,1.729,2.157,2.396   c1.76,1.403,3.932,2.071,6.018,2.056l0,0l65.009,0.033l0,0c1.036,0,2.071-0.185,3.046-0.527c0.977-0.35,1.894-0.859,2.7-1.512   c1.785-1.443,2.802-3.322,3.209-5.178c0.459-2.038,0.163-4.744-0.917-7.449c-0.576-1.379-1.397-2.664-2.409-3.774   c-2.234-2.405-5.329-3.733-8.061-5.505c-1.472-0.9-2.271-2.229-2.604-3.516c-0.33-1.318-0.24-2.898,0.608-4.343l0,0l4.694-7.685   l0,0c0.512-0.844,1.221-1.553,2.004-2.154s1.67-1.077,2.618-1.327c0.95-0.251,1.944-0.075,2.932-0.075l0,0h74.398l0,0   c1.29,0,2.587,0.158,3.792,0.627c1.207,0.475,2.315,1.211,3.249,2.129c0.929,0.918,1.718,1.996,2.209,3.207l0,0l13.154,32.438l0,0   c0.357,0.877,0.966,1.646,1.649,2.305c1.451,1.396,3.33,2.163,5.128,2.197l0,0l75.077,0.032l0,0c1.405,0,2.813-0.225,4.126-0.727   c1.313-0.492,2.531-1.244,3.568-2.195c3.171-2.883,4.205-7.241,3.366-11.024c-0.268-1.187-0.716-2.33-1.326-3.374   c-0.609-1.053-1.382-2.014-2.282-2.831c-0.9-0.812-1.915-1.521-3.032-1.996l0,0l-9.525-4.051l0,0   c-1.765-0.743-3.374-1.829-4.886-3.007c-1.514-1.178-2.897-2.521-4.12-4c-1.224-1.479-2.403-3.032-3.157-4.795l0,0L163.357,12.042   l0,0c-0.524-1.224-1.53-2.188-2.543-3.053c-2.125-1.808-4.767-2.785-7.31-2.813l0,0l-71.793,0.1l0,0   c-1.131,0.002-2.265,0.165-3.341,0.516c-1.077,0.353-2.096,0.881-3.002,1.56c-0.906,0.678-1.7,1.507-2.341,2.44   c-0.644,0.932-1.129,1.971-1.447,3.061c-0.691,2.186-0.458,5.283,0.86,8.343c0.693,1.568,1.697,3.002,2.927,4.203   c1.229,1.203,2.695,2.152,4.268,2.848l0,0l9.314,4.124l0,0c0.938,0.415,1.881,0.824,2.723,1.411c0.841,0.583,1.608,1.28,2.27,2.061   c0.662,0.783,1.28,1.627,1.66,2.577l0,0l4.562,11.392l0,0c1.031,3.05,0.86,6.491-0.821,9.757l0,0L32.26,204.266L32.26,204.266z    M454.686,141.736c0.854,0.668,1.588,1.486,2.502,2.813c0.91,1.337,2,3.183,3.049,4.712c1.043,1.527,2.046,2.729,3.257,3.682   c2.478,1.938,5.741,2.74,8.766,2.33c1.541-0.199,3.04-0.709,4.39-1.479c1.345-0.775,2.588-1.777,3.494-3.04l0,0l27.875-38.685l0,0   c1.773-2.533,2.479-5.685,2.188-8.644c-0.15-1.509-0.562-2.992-1.219-4.359c-0.656-1.365-1.555-2.62-2.637-3.681   c-3.61-3.44-8.121-4.47-12.603-3.284c-1.448,0.412-2.813,1.092-5.741,2.938c-2.919,1.846-7.398,4.856-10.402,6.773   c-3.006,1.919-4.535,2.741-6.129,3.401c-3.246,1.301-6.695,2.077-10.094,2.159l0,0h-71.369l-0.024-66.362l71.585-0.027l0,0   c5.166-0.038,10.523,0.783,15.705,2.796c2.498,0.962,4.933,2.113,7.166,3.585l0,0l21.686,14.283l0,0   c3.779,2.597,8.395,3.021,12.766-0.447c1.854-1.647,3.908-4.226,5.354-6.42c1.977-3.157,2.279-6.209,1.225-9.51   c-0.354-1.025-0.882-1.981-1.5-2.875l0,0l-20.048-28.988l0,0c-1.011-1.464-2.222-2.792-3.629-3.879   c-2.937-2.263-6.473-3.462-9.896-3.485l0,0L311.37,6.333l0,0c-1.543,0.002-3.104-0.159-4.581,0.29   c-1.478,0.447-2.85,1.249-4.036,2.261c-1.184,1.015-2.182,2.24-2.923,3.606c-1.468,2.687-1.917,5.973-1.14,9.037   c0.38,1.505,1.042,2.941,1.942,4.207c0.902,1.267,2.015,2.401,3.336,3.215l0,0l7.402,4.564l0,0   c0.869,0.537,1.664,1.199,2.311,1.988c1.357,1.646,2.014,3.696,2.007,5.66l0,0l0.084,158.985l0,0   c0.002,1.504-0.254,3.008-0.785,4.418c-1.071,2.699-2.7,4.744-6.346,6.725c-1.725,0.969-3.934,2.029-5.693,3.064   c-1.762,1.026-3.078,2.029-4.14,3.258c-2.199,2.547-3.186,5.938-2.932,9.095c0.125,1.629,0.572,3.239,1.309,4.702   c0.733,1.461,1.756,2.781,2.99,3.85c2.566,2.28,5.911,3.19,9.062,3.092l0,0l179.378,0.023l0,0c1.963,0,3.93-0.209,5.812-0.77   c1.884-0.56,3.675-1.41,5.291-2.529c1.616-1.11,3.099-2.447,4.247-4.042l0,0l21.473-29.731l0,0   c2.367-3.333,2.951-7.35,1.402-11.334c-0.497-1.229-1.197-2.371-2.066-3.382c-0.868-1.002-1.904-1.862-3.365-2.631   c-2.932-1.578-7.338-2.447-11.166-1.403c-1.913,0.477-3.658,1.438-5.338,2.48l0,0l-23.789,14.773l0,0   c-4.071,2.53-9.016,3.258-13.663,4.184c-4.644,0.937-9.425,1.43-14.216,1.421l0,0l-63.249-0.134l0.024-65.051h61.818l0,0   C452.911,140.225,453.834,141.077,454.686,141.736L454.686,141.736z M733.088,9.855c-0.835,0.57-1.833,0.844-2.794,0.798   c-0.492-0.023-0.978-0.127-1.896-0.449c-0.92-0.321-2.269-0.86-3.625-1.38c-1.361-0.52-2.735-1.021-10.197-2.468   c-7.467-1.447-21.025-3.835-34.609-3.706s-27.197,2.779-40.017,7.535c-12.815,4.754-24.843,11.611-34.96,19.478   c-10.118,7.865-18.328,16.739-25.098,26.592c-6.772,9.855-12.104,20.689-15.742,32.062c-3.637,11.373-5.578,23.286-5.83,34.893   c-0.25,11.61,1.187,22.911,4.318,33.728c3.131,10.815,7.954,21.146,14.299,30.408c6.347,9.262,14.213,17.445,21.121,23.393   c6.901,5.938,12.844,9.638,18.99,12.912c6.143,3.281,12.49,6.154,19.018,8.552c6.522,2.397,13.229,4.335,22.725,5.946   c9.5,1.611,21.794,2.897,34.079,2.723c12.285-0.167,24.563-1.805,36.468-4.852c11.901-3.049,23.432-7.51,32.477-11.744   c9.049-4.233,15.612-8.25,20.414-11.433c4.804-3.183,7.848-5.538,9.608-7.016c1.767-1.479,2.251-2.08,2.647-2.739   c0.396-0.66,0.705-1.37,0.91-2.104c0.2-0.735,0.293-1.504,0.371-2.683c0.084-1.186,0.15-2.772-0.138-4.292   c-0.284-1.512-0.923-2.957-2.024-4.242c-1.104-1.295-2.664-2.432-3.684-3.308c-2.047-1.778-2.26-2.78-2.723-4.228   c-0.184-0.733-0.247-1.494-0.252-2.254l0,0l-0.1-30.435l0,0c-0.013-2.153,0.455-4.442,1.596-6.614   c0.529-1.011,1.186-1.963,1.945-2.813l0,0l6.664-7.5l0,0c2.117-2.413,3.086-5.579,2.932-8.552   c-0.078-1.543-0.455-3.069-1.103-4.474c-0.644-1.403-1.562-2.679-2.685-3.739c-2.364-2.247-5.467-3.336-8.41-3.324l0,0   l-78.297,0.01l0,0c-1.307,0-2.605,0.301-3.825,0.781c-1.211,0.482-2.343,1.18-3.315,2.05c-0.973,0.871-1.791,1.915-2.408,3.067   c-1.225,2.286-1.621,5.027-1.058,7.606c0.279,1.276,0.78,2.505,1.482,3.606c0.7,1.104,1.587,2.098,2.635,2.883   c2.923,2.839,6.589,4.826,8.61,6.539c2.024,1.721,2.826,2.646,3.479,3.683c1.346,2.113,1.934,4.567,1.893,6.957l0,0l-0.014,40.405   l0,0c0,1.703-0.25,3.408-0.768,5.035c-0.52,1.621-1.295,3.166-2.293,4.545c-0.998,1.386-2.213,2.613-3.583,3.641   c-1.369,1.027-2.89,1.862-6.451,2.79c-3.56,0.935-9.162,1.954-14.774,1.944c-5.611-0.008-11.236-1.051-16.539-2.98   c-5.301-1.929-10.277-4.752-14.617-8.335c-4.338-3.573-8.041-7.917-10.826-12.192c-2.785-4.285-4.656-8.52-6.318-12.819   c-1.658-4.293-3.111-8.661-4.326-13.097c-1.22-4.426-2.199-8.928-2.994-16.436c-0.789-7.5-1.395-18.011-0.518-28.411   c0.877-10.402,3.225-20.7,6.859-30.529c3.639-9.83,8.558-19.19,13.176-25.842c4.613-6.652,8.924-10.596,13.802-13.624   c9.658-6.04,21.761-8.383,33.026-5.997c5.583,1.169,10.906,3.47,16.503,6.775c5.596,3.303,11.463,7.61,17.2,12.064   c5.736,4.454,11.346,9.055,16.773,13.857c1.169,1.199,2.547,2.199,4.051,2.94c2.969,1.463,6.488,1.898,9.797,1.127   c1.637-0.378,3.203-1.036,4.617-1.938c1.412-0.902,2.67-2.048,3.696-3.372c2.142-2.746,3.173-6.126,3.099-9.366   c-0.31-5.592-1.398-11.275-3.354-16.839c-0.957-2.708-1.988-5.41-3.425-7.896l0,0L750.977,4.346l0,0   c-0.547-0.944-1.261-1.792-2.111-2.474c-2.631-2.038-5.969-2.51-9.25-0.927c-0.985,0.489-1.883,1.157-2.66,2.289   c-0.775,1.131-1.428,2.729-1.862,3.748c-0.434,1.021-0.651,1.468-0.942,1.862C733.859,9.235,733.497,9.578,733.088,9.855   L733.088,9.855z" fill="" id="path5" style="undefined" fill-opacity=""/>
</g>
</svg>