<svg xml:space="preserve" viewbox="0 0 4081.632 2710.146" height="2710.146px" width="4081.632px" y="0px" x="0px" xmlns:xlink="http://www.w3.org/1999/xlink" xmlns="http://www.w3.org/2000/svg" id="Layer_1">
<path d="M875.535,971.634H327.827l-125.312,299.902h-29.567l425.213-1001.08h5.632l428.029,1001.08h-29.568L875.535,971.634z
	 M865.68,946.29L716.432,592.886L602.385,326.774h-2.816c-38.016,88.703-77.439,180.223-112.639,264.703L339.091,946.29H865.68z"/>
<path d="M2668.479,274.679l4.225,25.344H1235.826v447.742h1403.086v25.344H1235.826v473.084h1436.877l-4.225,25.344H1210.482
	V274.679H2668.479z"/>
<path d="M2839.662,773.108c0-299.902,216.83-525.182,506.877-525.182c198.525,0,347.773,88.705,451.963,271.742l-16.895,12.672
	l-5.633-1.406c-91.52-164.736-232.318-257.662-429.436-257.662c-273.15,0-480.125,216.83-480.125,499.836
	s211.197,499.836,478.717,499.836c191.486,0,347.773-116.863,439.293-284.414V801.269h-357.631v-25.346h381.566v495.613h-25.344
	v-70.4c0-46.463,0-118.27,1.408-164.734l-1.408-1.408c-101.375,159.104-250.623,263.295-436.477,263.295
	C3059.309,1298.288,2839.662,1074.417,2839.662,773.108z"/>
<path d="M165.212,1594.679h212.605c216.831,0,333.694,84.48,333.694,240.768c0,119.678-83.071,208.383-218.238,236.541v2.816
	c173.183,22.527,266.11,111.232,266.11,249.215c0,183.039-121.088,267.518-382.974,267.518H165.212V1594.679z M405.978,2063.54
	c159.104,0,278.782-95.744,278.782-226.686c0-137.984-107.007-216.832-299.901-216.832H190.556v443.518H405.978z M382.042,2566.192
	c239.358,0,350.59-76.031,350.59-242.174c0-146.432-121.088-235.135-319.613-235.135H190.556v477.309H382.042z"/>
<path d="M1549.243,1594.679l4.225,25.344h-506.877v447.742h473.086v25.344h-473.086v473.084h506.877l-4.225,25.344h-527.996
	v-996.857H1549.243z"/>
<path d="M2471.462,2585.903l-2.816,5.633h-25.344l-312.574-439.293h-257.662v439.293h-25.344v-996.857h223.871
	c223.869,0,333.693,99.969,333.693,277.375c0,145.023-84.48,252.029-246.398,275.965L2471.462,2585.903z M2095.528,2126.899
	c194.303,0,283.006-108.414,283.006-254.846c0-163.326-102.783-252.031-311.166-252.031h-194.303v506.877H2095.528z"/>
<path d="M2719.263,1594.679v971.514h1091.209l-4.225,25.344H2693.919v-996.857H2719.263z"/>
<rect height="586" width="26" y="1594.292" x="3068.359"/>
<polygon points="3666.825,1979.554 3360.804,1594.292 3334.359,1594.292 3334.359,2180.292 3360.359,2180.292 3360.359,1641.292 
	3367.229,1641.292 3476.93,1777.802 3806.376,2191.292 3808.359,2191.292 3808.359,1594.292 3783.359,1594.292 3783.359,2116.292 
	3775.689,2116.292 "/>
</svg>
