<svg xml:space="preserve" viewbox="0 0 9651.861 2605.042" height="2605.042px" width="9651.861px" y="0px" x="0px" xmlns:xlink="http://www.w3.org/1999/xlink" xmlns="http://www.w3.org/2000/svg" id="Layer_1">
<path d="M321.002,1500.979h29.568l319.613,771.578c23.936,59.137,49.28,115.457,74.624,176h2.815l74.624-176l319.613-771.578h29.567
	L749.032,2517.547H743.4L321.002,1500.979z"/>
<path d="M1429.502,1500.979v996.857h-25.344v-996.857H1429.502z"/>
<path d="M2290.739,1500.979l4.225,25.344h-506.877v447.742h473.084v25.344h-473.084v473.084h506.877l-4.225,25.344h-527.996
	v-996.857H2290.739z"/>
<path d="M5009.124,2197.934h-547.707l-125.312,299.902h-29.566l425.213-1001.08h5.631l428.029,1001.08h-29.568L5009.124,2197.934z
	 M4999.268,2172.59l-149.246-353.404l-114.049-266.111h-2.814c-38.016,88.705-77.439,180.223-112.641,264.703L4472.68,2172.59
	H4999.268z"/>
<path d="M5408.933,2026.863c-15.488,0-26.752-11.264-26.752-29.568c0-18.303,11.264-29.568,26.752-29.568
	s26.752,11.266,26.752,29.568c0,18.305-11.264,29.568-26.754,29.57L5408.933,2026.863z"/>
<polygon points="4123.762,1500.258 4123.762,2191.246 4123.762,2444.258 4119.18,2444.258 3944.588,2215.84 3396.881,1500.258 
	3381.917,1500.258 3356.573,1500.258 3355.762,1500.258 3355.762,2444.258 3352.348,2444.258 3177.756,2215.84 2630.049,1500.258 
	2589.762,1500.258 2589.762,2498.258 2613.762,2498.258 2613.762,1782.93 2613.762,1528.258 2618.786,1528.258 2793.375,1756.609 
	3361.799,2498.258 3381.762,2498.258 3381.762,1528.258 3385.618,1528.258 3560.208,1756.148 4143.116,2516.258 4147.762,2516.258 
	4147.762,1500.258 "/>
<path d="M5862.766,1501.645h212.605c216.832,0,333.695,84.48,333.695,240.768c0,119.678-83.072,208.383-218.238,236.541v2.816
	c173.182,22.527,266.109,111.232,266.109,249.215c0,183.039-121.088,267.518-382.973,267.518h-211.199V1501.645z M6103.532,1970.506
	c159.104,0,278.783-95.744,278.783-226.686c0-137.984-107.008-216.832-299.902-216.832H5888.11v443.518H6103.532z
	 M6079.596,2473.158c239.359,0,350.59-76.031,350.59-242.174c0-146.432-121.088-235.135-319.613-235.135H5888.11v477.309H6079.596z"/>
<path d="M7246.797,1501.645l4.225,25.344h-506.877v447.742h473.086v25.344h-473.086v473.084h506.877l-4.225,25.344h-527.996
	v-996.857H7246.797z"/>
<path d="M8169.016,2492.869l-2.816,5.633h-25.344l-312.574-439.293H7570.62v439.293h-25.344v-996.857h223.871
	c223.869,0,333.693,99.969,333.693,277.375c0,145.023-84.48,252.029-246.398,275.965L8169.016,2492.869z M7793.083,2033.865
	c194.303,0,283.006-108.414,283.006-254.846c0-163.326-102.783-252.031-311.166-252.031H7570.62v506.877H7793.083z"/>
<path d="M8416.816,1501.645v971.514h1091.209l-4.225,25.344H8391.473v-996.857H8416.816z"/>
<rect height="586" width="26" y="1501.258" x="8765.762"/>
<polygon points="9364.379,1886.52 9058.357,1501.258 9031.762,1501.258 9031.762,2087.258 9057.762,2087.258 9057.762,1548.258 
	9064.783,1548.258 9174.484,1684.768 9503.93,2098.258 9505.762,2098.258 9505.762,1501.258 9480.762,1501.258 9480.762,2023.258 
	9473.244,2023.258 "/>
<path d="M3109.106,181.571v971.513h1141.769l-4.225,25.344H3083.762V181.571H3109.106z"/>
<path d="M4959.878,181.258l4.223,25.344h-506.875v447.742h473.084v25.344h-473.084v473.083h506.875l-4.223,25.344h-527.996V181.258
	H4959.878z"/>
<path d="M5883.498,757.44l-349.18-575.869h28.158l178.816,298.494c49.279,83.072,101.375,166.143,153.471,249.215h2.814
	c50.688-83.072,102.783-166.143,152.064-249.215l178.814-298.494h28.16L5908.843,757.44v420.988h-25.346V757.44z"/>
<path d="M6987.359,181.571l4.223,25.344h-506.875v447.742h473.084V680h-473.084v473.083h506.875l-4.223,25.344h-527.996V181.571
	H6987.359z"/>
<path d="M7813.833,878.526h-547.707l-125.312,299.902h-29.566l425.211-1001.08h5.633l428.031,1001.08h-29.57L7813.833,878.526z
	 M7803.977,853.182l-149.246-353.404l-114.047-266.111h-2.816c-38.016,88.705-77.441,180.223-112.641,264.703l-147.84,354.812
	H7803.977z"/>
<path d="M8782.52,1172.795l-2.816,5.633h-25.344l-312.574-439.292h-257.66v439.292h-25.344V181.571h223.871
	c223.867,0,333.691,99.969,333.691,277.375c0,145.023-84.48,252.029-246.398,275.965L8782.52,1172.795z M8406.586,713.792
	c194.305,0,283.008-108.416,283.008-254.846c0-163.326-102.785-252.031-311.168-252.031h-194.3v506.877H8406.586z"/>
<path d="M8912.051,985.534l21.117-14.08l5.633,1.408c71.809,146.431,167.551,205.566,299.902,205.566
	c150.656,0,256.254-102.783,256.254-225.279c0-125.311-61.953-194.301-294.27-302.717
	c-187.262-87.295-250.621-152.062-250.621-277.373c0-129.535,111.23-218.238,263.293-218.238
	c122.496,0,212.605,52.094,273.148,166.143l-19.711,12.672l-5.633-1.408c-52.094-102.783-133.758-152.062-249.211-152.062
	c-136.578,0-235.137,84.479-235.137,190.078c0,119.68,56.32,168.959,270.336,271.742
	c212.605,101.375,274.559,173.182,274.559,311.164c0,146.431-122.496,250.623-281.602,250.623
	C9099.312,1203.771,8990.898,1144.637,8912.051,985.534z"/>
<path d="M3530.353,181.258l-250.715,587h28.149l71.099-171h317.937l71.936,171h28.988l-251.542-587H3530.353z M3600.622,367.261
	l86.329,206.997h-298.176l86.323-207.838c12.192-29.686,24.887-59.841,37.163-88.93c7.053-16.712,14.347-34.207,21.392-51.053
	l0.821-2.179h5.934l0.822,2.142c8.44,20.183,17.233,40.979,25.737,60.935C3577.972,313.158,3589.352,340.025,3600.622,367.261z"/>
<polygon points="3998.762,767.258 4024.762,767.258 4024.762,205.258 4239.762,205.258 4239.762,181.258 3784.762,181.258 
	3784.762,205.258 3998.762,205.258 "/>
</svg>
