<svg xmlns:xlink="http://www.w3.org/1999/xlink" xmlns="http://www.w3.org/2000/svg" xml:space="preserve" viewbox="0 0 2000 2000" height="2000px" width="2000px" y="0px" x="0px" id="Layer_1" style="box-shadow: none; border-radius: 0px; opacity: 1;" viewBox="730.8340454101562 730.8890380859375 537.2781372070312 537.5389404296875" preserveAspectRatio="xMidYMid meet" fill="#ffffff" fill-opacity="1">
<g>
	<path d="M997.5,1066c-36.117,0-65.5-28.822-65.5-64.25s29.383-64.25,65.5-64.25s65.5,28.822,65.5,64.25   S1033.617,1066,997.5,1066z M997.5,940.5c-34.463,0-62.5,27.477-62.5,61.25s28.037,61.25,62.5,61.25s62.5-27.477,62.5-61.25   S1031.963,940.5,997.5,940.5z" fill="" style="undefined" fill-opacity=""/>
</g>
<g>
	<path d="M1055.94,975.431l-1.814-2.389c0,0,52.966-40.236,86.466-65.735c4.979-3.791,10.5-7.853,16.345-12.152   c32.072-23.595,75.996-55.909,78.068-80.779c1.211-14.526-5.215-28.689-18.582-40.957c-13.975-12.827-34.994-23.015-60.787-29.463   c-52.282-13.067-83.021,40.731-83.326,41.276c-0.106,0.199-12.319,23.137-41.471,80.944   c-28.751,57.015-28.842,72.637-28.839,72.787l-2.999,0.087c-0.021-0.628-0.176-16.052,29.16-74.226   c29.17-57.846,41.396-80.805,41.516-81.03c0.336-0.602,8.064-14.281,22.608-26.505c13.496-11.345,35.566-23.373,64.079-16.244   c53.028,13.257,84.308,41.451,81.631,73.58c-2.187,26.229-44.933,57.677-79.281,82.946c-5.834,4.292-11.346,8.347-16.306,12.122   C1108.908,935.194,1055.94,975.431,1055.94,975.431z" fill="" style="undefined" fill-opacity=""/>
</g>
<g>
	<path d="M930.168,1003.535c-9.386,0-21.521-5.241-22.101-5.493c-5.504-2.729-133.496-66.329-158.663-86.197   c-11.64-9.189-18.57-29.626-18.087-53.335c0.671-32.935,15.052-62.738,38.469-79.724c16.951-12.295,32.653-17.093,46.664-14.262   c16.068,3.247,24.004,15.369,24.78,16.613L970.532,944.45l-2.352,1.861L838.766,782.857l-0.049-0.08   c-0.073-0.121-7.623-12.256-22.909-15.322c-13.142-2.636-28.036,1.991-44.26,13.759c-22.661,16.438-36.579,45.356-37.231,77.357   c-0.457,22.443,6.195,42.43,16.947,50.918c24.921,19.676,156.741,85.175,158.07,85.834c0.084,0.035,15.281,6.593,23.885,4.953   l0.562,2.947C932.65,1003.439,931.434,1003.534,930.168,1003.535z" fill="" style="undefined" fill-opacity=""/>
</g>
<g>
	<path d="M856.669,1268.427c-47.914,0.001-88.521-35.848-96.116-63.699c-8.188-30.025,18.673-48.457,18.945-48.641   l161.937-123.688l1.82,2.385l-162.011,123.742c-0.328,0.224-25.411,17.494-17.797,45.413c4.06,14.886,18.581,32.227,36.994,44.178   c22.07,14.325,47.396,20.03,71.313,16.07c25.998-3.853,34.852-19.103,34.938-19.256l83.377-147.741l0.05-0.069   c0.118-0.164,11.78-16.562,5.976-32.095l2.811-1.051c6.232,16.678-5.298,33.42-6.305,34.834l-83.294,147.595   c-0.097,0.172-2.459,4.306-8.244,8.934c-5.277,4.222-14.564,9.697-28.843,11.812   C866.975,1268.019,861.779,1268.427,856.669,1268.427z" fill="" style="undefined" fill-opacity=""/>
</g>
<g>
	<path d="M1194.931,1239.666c-7.686,0-14.205-2.115-19.225-4.615c-10.817-5.388-16.98-13.475-17.237-13.815   c-0.808-0.995-84.196-103.921-102.99-128.32c-18.854-24.477-25.513-36.473-25.787-36.972l2.629-1.446   c0.066,0.121,6.851,12.331,25.535,36.588c18.771,24.37,102.137,127.268,102.977,128.304c0.995,1.315,24.002,31.005,58.716,9.666   c34.529-21.224,45.739-73.812,44.627-84.919c-0.643-6.416-3.343-28.31-11.111-40.671c-5.839-9.289-122.595-71.583-167.091-94.802   l-0.096-0.055c-0.118-0.072-11.877-7.202-23.832-2.544l-1.09-2.795c13.09-5.101,25.431,2.136,26.453,2.758   c7.21,3.764,160.748,83.994,168.194,95.842c7.896,12.562,10.713,33.534,11.557,41.968c0.952,9.505-8.456,64.673-46.041,87.774   C1211.447,1237.556,1202.606,1239.666,1194.931,1239.666z" fill="" style="undefined" fill-opacity=""/>
</g>
<g>
	<path d="M1072.875,1079.25c-5.308,0-9.625-4.317-9.625-9.625s4.317-9.625,9.625-9.625s9.625,4.317,9.625,9.625   S1078.183,1079.25,1072.875,1079.25z M1072.875,1063c-3.653,0-6.625,2.972-6.625,6.625s2.972,6.625,6.625,6.625   s6.625-2.972,6.625-6.625S1076.528,1063,1072.875,1063z" fill="" style="undefined" fill-opacity=""/>
</g>
<g>
	<path d="M1091.875,1043.25c-5.308,0-9.625-4.317-9.625-9.625s4.317-9.625,9.625-9.625s9.625,4.317,9.625,9.625   S1097.183,1043.25,1091.875,1043.25z M1091.875,1027c-3.653,0-6.625,2.972-6.625,6.625s2.972,6.625,6.625,6.625   s6.625-2.972,6.625-6.625S1095.528,1027,1091.875,1027z" fill="" style="undefined" fill-opacity=""/>
</g>
<g>
	<path d="M968.875,1103.25c-5.308,0-9.625-4.317-9.625-9.625s4.317-9.625,9.625-9.625s9.625,4.317,9.625,9.625   S974.183,1103.25,968.875,1103.25z M968.875,1087c-3.653,0-6.625,2.972-6.625,6.625s2.972,6.625,6.625,6.625   s6.625-2.972,6.625-6.625S972.528,1087,968.875,1087z" fill="" style="undefined" fill-opacity=""/>
</g>
<g>
	<path d="M931.875,1082.25c-5.308,0-9.625-4.317-9.625-9.625s4.317-9.625,9.625-9.625s9.625,4.317,9.625,9.625   S937.183,1082.25,931.875,1082.25z M931.875,1066c-3.653,0-6.625,2.972-6.625,6.625s2.972,6.625,6.625,6.625   s6.625-2.972,6.625-6.625S935.528,1066,931.875,1066z" fill="" style="undefined" fill-opacity=""/>
</g>
<g>
	<path d="M907.875,981.25c-5.308,0-9.625-4.317-9.625-9.625s4.317-9.625,9.625-9.625s9.625,4.317,9.625,9.625   S913.183,981.25,907.875,981.25z M907.875,965c-3.653,0-6.625,2.972-6.625,6.625s2.972,6.625,6.625,6.625s6.625-2.972,6.625-6.625   S911.528,965,907.875,965z" fill="" style="undefined" fill-opacity=""/>
</g>
<g>
	<path d="M928.875,945.25c-5.308,0-9.625-4.317-9.625-9.625s4.317-9.625,9.625-9.625s9.625,4.317,9.625,9.625   S934.183,945.25,928.875,945.25z M928.875,929c-3.653,0-6.625,2.972-6.625,6.625s2.972,6.625,6.625,6.625s6.625-2.972,6.625-6.625   S932.528,929,928.875,929z" fill="" style="undefined" fill-opacity=""/>
</g>
<g>
	<path d="M1029.875,921.25c-5.308,0-9.625-4.317-9.625-9.625s4.317-9.625,9.625-9.625s9.625,4.317,9.625,9.625   S1035.183,921.25,1029.875,921.25z M1029.875,905c-3.653,0-6.625,2.972-6.625,6.625s2.972,6.625,6.625,6.625   s6.625-2.972,6.625-6.625S1033.528,905,1029.875,905z" fill="" style="undefined" fill-opacity=""/>
</g>
<g>
	<path d="M1067.875,943.25c-5.308,0-9.625-4.317-9.625-9.625s4.317-9.625,9.625-9.625s9.625,4.317,9.625,9.625   S1073.183,943.25,1067.875,943.25z M1067.875,927c-3.653,0-6.625,2.972-6.625,6.625s2.972,6.625,6.625,6.625   s6.625-2.972,6.625-6.625S1071.528,927,1067.875,927z" fill="" style="undefined" fill-opacity=""/>
</g>
</svg>