<svg xmlns:xlink="http://www.w3.org/1999/xlink" xmlns="http://www.w3.org/2000/svg" xml:space="preserve" viewbox="0 0 2000 2000" height="2000px" width="2000px" y="0px" x="0px" id="Layer_1" style="box-shadow: none; border-radius: 0px; opacity: 1;" viewBox="628.5 656.5 742.0009765625 687.407958984375" preserveAspectRatio="xMidYMid meet" fill="#ffffff" fill-opacity="1">
<g>
	<path d="M865.998,1343.908c-7.572,0-14.643-1.415-21.612-4.327c-65.224-27.25-119.644-71.264-157.375-127.284   c-38.278-56.831-58.511-124.883-58.511-196.797c0-48.471,9.812-95.491,29.163-139.756c18.688-42.751,45.442-81.145,79.518-114.113   c34.072-32.965,73.748-58.847,117.925-76.925C900.841,665.99,949.422,656.5,999.5,656.5s98.659,9.49,144.395,28.206   c44.177,18.078,83.853,43.96,117.925,76.925c34.075,32.969,60.829,71.362,79.518,114.113   c19.352,44.265,29.163,91.285,29.163,139.756c0,147.258-63.719,264.198-174.818,320.837c-9.653,4.921-18.753,7.312-27.819,7.312   c-13.485,0-25.931-5.036-41.687-11.411c-24.758-10.019-58.665-23.738-116.676-23.738c-38.634,0-67.272,11.429-92.539,21.512   C898.279,1337.468,882.145,1343.906,865.998,1343.908z M999.5,659.5c-49.687,0-97.886,9.415-143.258,27.982   c-43.822,17.934-83.179,43.605-116.976,76.305c-33.793,32.695-60.323,70.768-78.855,113.158   c-19.184,43.884-28.911,90.5-28.911,138.555c0,71.315,20.056,138.787,57.999,195.121c37.403,55.532,91.362,99.169,156.043,126.192   c6.597,2.756,13.288,4.095,20.456,4.095c15.57-0.002,31.456-6.342,49.851-13.683c25.519-10.184,54.441-21.726,93.651-21.726   c58.595,0,92.814,13.847,117.801,23.957c15.454,6.253,27.66,11.192,40.562,11.192c8.701,0,17.107-2.22,26.456-6.985   c110.06-56.107,173.182-172.074,173.182-318.164c0-48.055-9.728-94.671-28.911-138.555   c-18.532-42.391-45.062-80.463-78.855-113.158c-33.797-32.699-73.153-58.371-116.976-76.305   C1097.386,668.915,1049.187,659.5,999.5,659.5z" fill="" style="undefined" fill-opacity=""/>
</g>
<g>
	<path d="M1005,1340.5c-89.876,0-174.374-34.218-237.93-96.35c-63.563-62.142-98.57-144.765-98.57-232.65   s35.007-170.509,98.57-232.65c63.556-62.132,148.054-96.35,237.93-96.35s174.375,34.218,237.93,96.35   c63.564,62.142,98.57,144.765,98.57,232.65c0,30.223-2.188,86.75-16.846,125.777c-0.291,0.775-1.159,1.167-1.932,0.877   c-0.775-0.291-1.168-1.156-0.877-1.932c14.49-38.583,16.654-94.704,16.654-124.723c0-87.071-34.686-168.933-97.667-230.505   C1177.842,719.414,1094.088,685.5,1005,685.5s-172.841,33.914-235.832,95.495C706.186,842.567,671.5,924.429,671.5,1011.5   s34.686,168.933,97.668,230.505c62.991,61.581,146.744,95.495,235.832,95.495c64.735,0,127.156-16.13,180.517-46.646   c53.673-30.696,96.083-74.795,122.644-127.528c0.372-0.739,1.272-1.036,2.015-0.665c0.74,0.373,1.037,1.274,0.665,2.015   c-26.827,53.262-69.648,97.794-123.834,128.783C1133.193,1324.233,1070.257,1340.5,1005,1340.5z" fill="" style="undefined" fill-opacity=""/>
</g>
</svg>